<?xml version="1.0" encoding="UTF-8" standalone="no"?><svg xmlns="http://www.w3.org/2000/svg" xmlns:xlink="http://www.w3.org/1999/xlink" clip-rule="evenodd" stroke-miterlimit="10" viewBox="0 0 1024 768"><desc>SVG generated by Keynote</desc><defs></defs><g transform="matrix(1.00, 0.00, -0.00, -1.00, 0.0, 768.0)"><path d="M 0.0 768.0 L 1024.0 768.0 L 1024.0 0.0 L 0.0 0.0 Z M 0.0 768.0 " fill="#FFFFFF"></path><text xml:space="preserve" font-family="Helvetica,Helvetica" font-size="38.0" fill="#000000" transform="matrix(1.00, 0.00, -0.00, -1.00, 57.8, 710.6)">M</text><text xml:space="preserve" font-family="Helvetica,Helvetica" font-size="38.0" fill="#000000" transform="matrix(1.00, 0.00, -0.00, -1.00, 89.4, 710.6)">o</text><text xml:space="preserve" font-family="Helvetica,Helvetica" font-size="38.0" fill="#000000" transform="matrix(1.00, 0.00, -0.00, -1.00, 110.6, 710.6)">d</text><text xml:space="preserve" font-family="Helvetica,Helvetica" font-size="38.0" fill="#000000" transform="matrix(1.00, 0.00, -0.00, -1.00, 131.7, 710.6)">e</text><text xml:space="preserve" font-family="Helvetica,Helvetica" font-size="38.0" fill="#000000" transform="matrix(1.00, 0.00, -0.00, -1.00, 152.9, 710.6)">l</text><text xml:space="preserve" font-family="Helvetica,Helvetica" font-size="38.0" fill="#000000" transform="matrix(1.00, 0.00, -0.00, -1.00, 161.3, 710.6)"> </text><text xml:space="preserve" font-family="Helvetica,Helvetica" font-size="38.0" fill="#000000" transform="matrix(1.00, 0.00, -0.00, -1.00, 171.9, 710.6)">b</text><text xml:space="preserve" font-family="Helvetica,Helvetica" font-size="38.0" fill="#000000" transform="matrix(1.00, 0.00, -0.00, -1.00, 193.0, 710.6)">a</text><text xml:space="preserve" font-family="Helvetica,Helvetica" font-size="38.0" fill="#000000" transform="matrix(1.00, 0.00, -0.00, -1.00, 214.1, 710.6)">s</text><text xml:space="preserve" font-family="Helvetica,Helvetica" font-size="38.0" fill="#000000" transform="matrix(1.00, 0.00, -0.00, -1.00, 233.1, 710.6)">e</text><text xml:space="preserve" font-family="Helvetica,Helvetica" font-size="38.0" fill="#000000" transform="matrix(1.00, 0.00, -0.00, -1.00, 254.3, 710.6)">d</text><text xml:space="preserve" font-family="Helvetica,Helvetica" font-size="38.0" fill="#000000" transform="matrix(1.00, 0.00, -0.00, -1.00, 275.4, 710.6)"> </text><text xml:space="preserve" font-family="Helvetica,Helvetica" font-size="38.0" fill="#000000" transform="matrix(1.00, 0.00, -0.00, -1.00, 286.0, 710.6)">a</text><text xml:space="preserve" font-family="Helvetica,Helvetica" font-size="38.0" fill="#000000" transform="matrix(1.00, 0.00, -0.00, -1.00, 307.1, 710.6)">s</text><text xml:space="preserve" font-family="Helvetica,Helvetica" font-size="38.0" fill="#000000" transform="matrix(1.00, 0.00, -0.00, -1.00, 326.1, 710.6)">s</text><text xml:space="preserve" font-family="Helvetica,Helvetica" font-size="38.0" fill="#000000" transform="matrix(1.00, 0.00, -0.00, -1.00, 345.1, 710.6)">i</text><text xml:space="preserve" font-family="Helvetica,Helvetica" font-size="38.0" fill="#000000" transform="matrix(1.00, 0.00, -0.00, -1.00, 353.6, 710.6)">g</text><text xml:space="preserve" font-family="Helvetica,Helvetica" font-size="38.0" fill="#000000" transform="matrix(1.00, 0.00, -0.00, -1.00, 374.7, 710.6)">n</text><text xml:space="preserve" font-family="Helvetica,Helvetica" font-size="38.0" fill="#000000" transform="matrix(1.00, 0.00, -0.00, -1.00, 395.9, 710.6)">m</text><text xml:space="preserve" font-family="Helvetica,Helvetica" font-size="38.0" fill="#000000" transform="matrix(1.00, 0.00, -0.00, -1.00, 427.5, 710.6)">e</text><text xml:space="preserve" font-family="Helvetica,Helvetica" font-size="38.0" fill="#000000" transform="matrix(1.00, 0.00, -0.00, -1.00, 448.6, 710.6)">n</text><text xml:space="preserve" font-family="Helvetica,Helvetica" font-size="38.0" fill="#000000" transform="matrix(1.00, 0.00, -0.00, -1.00, 469.8, 710.6)">t</text><text xml:space="preserve" font-family="Helvetica,Helvetica" font-size="38.0" fill="#000000" transform="matrix(1.00, 0.00, -0.00, -1.00, 480.3, 710.6)"> </text><text xml:space="preserve" font-family="Helvetica,Helvetica" font-size="38.0" fill="#000000" transform="matrix(1.00, 0.00, -0.00, -1.00, 490.9, 710.6)">o</text><text xml:space="preserve" font-family="Helvetica,Helvetica" font-size="38.0" fill="#000000" transform="matrix(1.00, 0.00, -0.00, -1.00, 512.0, 710.6)">f</text><text xml:space="preserve" font-family="Helvetica,Helvetica" font-size="38.0" fill="#000000" transform="matrix(1.00, 0.00, -0.00, -1.00, 522.6, 710.6)"> </text><text xml:space="preserve" font-family="Helvetica,Helvetica" font-size="38.0" fill="#000000" transform="matrix(1.00, 0.00, -0.00, -1.00, 533.1, 710.6)">i</text><text xml:space="preserve" font-family="Helvetica,Helvetica" font-size="38.0" fill="#000000" transform="matrix(1.00, 0.00, -0.00, -1.00, 541.6, 710.6)">n</text><text xml:space="preserve" font-family="Helvetica,Helvetica" font-size="38.0" fill="#000000" transform="matrix(1.00, 0.00, -0.00, -1.00, 562.7, 710.6)">d</text><text xml:space="preserve" font-family="Helvetica,Helvetica" font-size="38.0" fill="#000000" transform="matrix(1.00, 0.00, -0.00, -1.00, 583.9, 710.6)">i</text><text xml:space="preserve" font-family="Helvetica,Helvetica" font-size="38.0" fill="#000000" transform="matrix(1.00, 0.00, -0.00, -1.00, 592.3, 710.6)">v</text><text xml:space="preserve" font-family="Helvetica,Helvetica" font-size="38.0" fill="#000000" transform="matrix(1.00, 0.00, -0.00, -1.00, 611.3, 710.6)">i</text><text xml:space="preserve" font-family="Helvetica,Helvetica" font-size="38.0" fill="#000000" transform="matrix(1.00, 0.00, -0.00, -1.00, 619.8, 710.6)">d</text><text xml:space="preserve" font-family="Helvetica,Helvetica" font-size="38.0" fill="#000000" transform="matrix(1.00, 0.00, -0.00, -1.00, 640.9, 710.6)">u</text><text xml:space="preserve" font-family="Helvetica,Helvetica" font-size="38.0" fill="#000000" transform="matrix(1.00, 0.00, -0.00, -1.00, 662.0, 710.6)">a</text><text xml:space="preserve" font-family="Helvetica,Helvetica" font-size="38.0" fill="#000000" transform="matrix(1.00, 0.00, -0.00, -1.00, 683.2, 710.6)">l</text><text xml:space="preserve" font-family="Helvetica,Helvetica" font-size="38.0" fill="#000000" transform="matrix(1.00, 0.00, -0.00, -1.00, 691.6, 710.6)">s</text><text xml:space="preserve" font-family="Helvetica,Helvetica" font-size="38.0" fill="#000000" transform="matrix(1.00, 0.00, -0.00, -1.00, 710.6, 710.6)"> </text><text xml:space="preserve" font-family="Helvetica,Helvetica" font-size="38.0" fill="#000000" transform="matrix(1.00, 0.00, -0.00, -1.00, 721.2, 710.6)">t</text><text xml:space="preserve" font-family="Helvetica,Helvetica" font-size="38.0" fill="#000000" transform="matrix(1.00, 0.00, -0.00, -1.00, 731.7, 710.6)">o</text><text xml:space="preserve" font-family="Helvetica,Helvetica" font-size="38.0" fill="#000000" transform="matrix(1.00, 0.00, -0.00, -1.00, 752.9, 710.6)"> </text><text xml:space="preserve" font-family="Helvetica,Helvetica" font-size="38.0" fill="#000000" transform="matrix(1.00, 0.00, -0.00, -1.00, 763.4, 710.6)">p</text><text xml:space="preserve" font-family="Helvetica,Helvetica" font-size="38.0" fill="#000000" transform="matrix(1.00, 0.00, -0.00, -1.00, 784.6, 710.6)">o</text><text xml:space="preserve" font-family="Helvetica,Helvetica" font-size="38.0" fill="#000000" transform="matrix(1.00, 0.00, -0.00, -1.00, 805.7, 710.6)">p</text><text xml:space="preserve" font-family="Helvetica,Helvetica" font-size="38.0" fill="#000000" transform="matrix(1.00, 0.00, -0.00, -1.00, 826.9, 710.6)">u</text><text xml:space="preserve" font-family="Helvetica,Helvetica" font-size="38.0" fill="#000000" transform="matrix(1.00, 0.00, -0.00, -1.00, 848.0, 710.6)">l</text><text xml:space="preserve" font-family="Helvetica,Helvetica" font-size="38.0" fill="#000000" transform="matrix(1.00, 0.00, -0.00, -1.00, 856.4, 710.6)">a</text><text xml:space="preserve" font-family="Helvetica,Helvetica" font-size="38.0" fill="#000000" transform="matrix(1.00, 0.00, -0.00, -1.00, 877.6, 710.6)">t</text><text xml:space="preserve" font-family="Helvetica,Helvetica" font-size="38.0" fill="#000000" transform="matrix(1.00, 0.00, -0.00, -1.00, 888.1, 710.6)">i</text><text xml:space="preserve" font-family="Helvetica,Helvetica" font-size="38.0" fill="#000000" transform="matrix(1.00, 0.00, -0.00, -1.00, 896.6, 710.6)">o</text><text xml:space="preserve" font-family="Helvetica,Helvetica" font-size="38.0" fill="#000000" transform="matrix(1.00, 0.00, -0.00, -1.00, 917.7, 710.6)">n</text><text xml:space="preserve" font-family="Helvetica,Helvetica" font-size="38.0" fill="#000000" transform="matrix(1.00, 0.00, -0.00, -1.00, 938.9, 710.6)">s</text><text xml:space="preserve" font-family="Helvetica,Helvetica" font-size="34.0" fill="#000000" transform="matrix(1.00, 0.00, -0.00, -1.00, 56.3, 304.1)">•</text><text xml:space="preserve" font-family="Helvetica,Helvetica" font-size="34.0" fill="#000000" transform="matrix(1.00, 0.00, -0.00, -1.00, 94.6, 304.1)">a</text><text xml:space="preserve" font-family="Helvetica,Helvetica" font-size="34.0" fill="#000000" transform="matrix(1.00, 0.00, -0.00, -1.00, 113.5, 304.1)"> </text><text xml:space="preserve" font-family="Helvetica,Helvetica" font-size="34.0" fill="#000000" transform="matrix(1.00, 0.00, -0.00, -1.00, 122.9, 304.1)">p</text><text xml:space="preserve" font-family="Helvetica,Helvetica" font-size="34.0" fill="#000000" transform="matrix(1.00, 0.00, -0.00, -1.00, 141.8, 304.1)">r</text><text xml:space="preserve" font-family="Helvetica,Helvetica" font-size="34.0" fill="#000000" transform="matrix(1.00, 0.00, -0.00, -1.00, 153.2, 304.1)">i</text><text xml:space="preserve" font-family="Helvetica,Helvetica" font-size="34.0" fill="#000000" transform="matrix(1.00, 0.00, -0.00, -1.00, 160.7, 304.1)">o</text><text xml:space="preserve" font-family="Helvetica,Helvetica" font-size="34.0" fill="#000000" transform="matrix(1.00, 0.00, -0.00, -1.00, 179.6, 304.1)">r</text><text xml:space="preserve" font-family="Helvetica,Helvetica" font-size="34.0" fill="#000000" transform="matrix(1.00, 0.00, -0.00, -1.00, 191.0, 304.1)">i</text><text xml:space="preserve" font-family="Helvetica,Helvetica" font-size="34.0" fill="#000000" transform="matrix(1.00, 0.00, -0.00, -1.00, 198.5, 304.1)"> </text><text xml:space="preserve" font-family="Helvetica,Helvetica" font-size="34.0" fill="#000000" transform="matrix(1.00, 0.00, -0.00, -1.00, 208.0, 304.1)">d</text><text xml:space="preserve" font-family="Helvetica,Helvetica" font-size="34.0" fill="#000000" transform="matrix(1.00, 0.00, -0.00, -1.00, 226.9, 304.1)">e</text><text xml:space="preserve" font-family="Helvetica,Helvetica" font-size="34.0" fill="#000000" transform="matrix(1.00, 0.00, -0.00, -1.00, 245.8, 304.1)">c</text><text xml:space="preserve" font-family="Helvetica,Helvetica" font-size="34.0" fill="#000000" transform="matrix(1.00, 0.00, -0.00, -1.00, 262.8, 304.1)">i</text><text xml:space="preserve" font-family="Helvetica,Helvetica" font-size="34.0" fill="#000000" transform="matrix(1.00, 0.00, -0.00, -1.00, 270.4, 304.1)">d</text><text xml:space="preserve" font-family="Helvetica,Helvetica" font-size="34.0" fill="#000000" transform="matrix(1.00, 0.00, -0.00, -1.00, 289.3, 304.1)">e</text><text xml:space="preserve" font-family="Helvetica,Helvetica" font-size="34.0" fill="#000000" transform="matrix(1.00, 0.00, -0.00, -1.00, 308.2, 304.1)"> </text><text xml:space="preserve" font-family="Helvetica,Helvetica" font-size="34.0" fill="#000000" transform="matrix(1.00, 0.00, -0.00, -1.00, 317.6, 304.1)">o</text><text xml:space="preserve" font-family="Helvetica,Helvetica" font-size="34.0" fill="#000000" transform="matrix(1.00, 0.00, -0.00, -1.00, 336.5, 304.1)">n</text><text xml:space="preserve" font-family="Helvetica,Helvetica" font-size="34.0" fill="#000000" transform="matrix(1.00, 0.00, -0.00, -1.00, 355.5, 304.1)"> </text><text xml:space="preserve" font-family="Helvetica,Helvetica" font-size="34.0" fill="#000000" transform="matrix(1.00, 0.00, -0.00, -1.00, 364.9, 304.1)">t</text><text xml:space="preserve" font-family="Helvetica,Helvetica" font-size="34.0" fill="#000000" transform="matrix(1.00, 0.00, -0.00, -1.00, 374.3, 304.1)">h</text><text xml:space="preserve" font-family="Helvetica,Helvetica" font-size="34.0" fill="#000000" transform="matrix(1.00, 0.00, -0.00, -1.00, 393.3, 304.1)">e</text><text xml:space="preserve" font-family="Helvetica,Helvetica" font-size="34.0" fill="#000000" transform="matrix(1.00, 0.00, -0.00, -1.00, 412.2, 304.1)"> </text><text xml:space="preserve" font-family="Helvetica,Helvetica" font-size="34.0" fill="#000000" transform="matrix(1.00, 0.00, -0.00, -1.00, 421.6, 304.1)">n</text><text xml:space="preserve" font-family="Helvetica,Helvetica" font-size="34.0" fill="#000000" transform="matrix(1.00, 0.00, -0.00, -1.00, 440.5, 304.1)">u</text><text xml:space="preserve" font-family="Helvetica,Helvetica" font-size="34.0" fill="#000000" transform="matrix(1.00, 0.00, -0.00, -1.00, 459.4, 304.1)">m</text><text xml:space="preserve" font-family="Helvetica,Helvetica" font-size="34.0" fill="#000000" transform="matrix(1.00, 0.00, -0.00, -1.00, 487.8, 304.1)">b</text><text xml:space="preserve" font-family="Helvetica,Helvetica" font-size="34.0" fill="#000000" transform="matrix(1.00, 0.00, -0.00, -1.00, 506.7, 304.1)">e</text><text xml:space="preserve" font-family="Helvetica,Helvetica" font-size="34.0" fill="#000000" transform="matrix(1.00, 0.00, -0.00, -1.00, 525.6, 304.1)">r</text><text xml:space="preserve" font-family="Helvetica,Helvetica" font-size="34.0" fill="#000000" transform="matrix(1.00, 0.00, -0.00, -1.00, 536.9, 304.1)"> </text><text xml:space="preserve" font-family="Helvetica,Helvetica" font-size="34.0" fill="#000000" transform="matrix(1.00, 0.00, -0.00, -1.00, 546.4, 304.1)">o</text><text xml:space="preserve" font-family="Helvetica,Helvetica" font-size="34.0" fill="#000000" transform="matrix(1.00, 0.00, -0.00, -1.00, 565.3, 304.1)">f</text><text xml:space="preserve" font-family="Helvetica,Helvetica" font-size="34.0" fill="#000000" transform="matrix(1.00, 0.00, -0.00, -1.00, 574.7, 304.1)"> </text><text xml:space="preserve" font-family="Helvetica,Helvetica" font-size="34.0" fill="#000000" transform="matrix(1.00, 0.00, -0.00, -1.00, 584.2, 304.1)">l</text><text xml:space="preserve" font-family="Helvetica,Helvetica" font-size="34.0" fill="#000000" transform="matrix(1.00, 0.00, -0.00, -1.00, 591.7, 304.1)">i</text><text xml:space="preserve" font-family="Helvetica,Helvetica" font-size="34.0" fill="#000000" transform="matrix(1.00, 0.00, -0.00, -1.00, 599.3, 304.1)">k</text><text xml:space="preserve" font-family="Helvetica,Helvetica" font-size="34.0" fill="#000000" transform="matrix(1.00, 0.00, -0.00, -1.00, 616.3, 304.1)">e</text><text xml:space="preserve" font-family="Helvetica,Helvetica" font-size="34.0" fill="#000000" transform="matrix(1.00, 0.00, -0.00, -1.00, 635.2, 304.1)">l</text><text xml:space="preserve" font-family="Helvetica,Helvetica" font-size="34.0" fill="#000000" transform="matrix(1.00, 0.00, -0.00, -1.00, 642.7, 304.1)">y</text><text xml:space="preserve" font-family="Helvetica,Helvetica" font-size="34.0" fill="#000000" transform="matrix(1.00, 0.00, -0.00, -1.00, 659.7, 304.1)"> </text><text xml:space="preserve" font-family="Helvetica,Helvetica" font-size="34.0" fill="#000000" transform="matrix(1.00, 0.00, -0.00, -1.00, 669.2, 304.1)">a</text><text xml:space="preserve" font-family="Helvetica,Helvetica" font-size="34.0" fill="#000000" transform="matrix(1.00, 0.00, -0.00, -1.00, 688.1, 304.1)">n</text><text xml:space="preserve" font-family="Helvetica,Helvetica" font-size="34.0" fill="#000000" transform="matrix(1.00, 0.00, -0.00, -1.00, 707.0, 304.1)">c</text><text xml:space="preserve" font-family="Helvetica,Helvetica" font-size="34.0" fill="#000000" transform="matrix(1.00, 0.00, -0.00, -1.00, 724.0, 304.1)">e</text><text xml:space="preserve" font-family="Helvetica,Helvetica" font-size="34.0" fill="#000000" transform="matrix(1.00, 0.00, -0.00, -1.00, 742.9, 304.1)">s</text><text xml:space="preserve" font-family="Helvetica,Helvetica" font-size="34.0" fill="#000000" transform="matrix(1.00, 0.00, -0.00, -1.00, 759.9, 304.1)">t</text><text xml:space="preserve" font-family="Helvetica,Helvetica" font-size="34.0" fill="#000000" transform="matrix(1.00, 0.00, -0.00, -1.00, 769.4, 304.1)">r</text><text xml:space="preserve" font-family="Helvetica,Helvetica" font-size="34.0" fill="#000000" transform="matrix(1.00, 0.00, -0.00, -1.00, 780.7, 304.1)">a</text><text xml:space="preserve" font-family="Helvetica,Helvetica" font-size="34.0" fill="#000000" transform="matrix(1.00, 0.00, -0.00, -1.00, 799.6, 304.1)">l</text><text xml:space="preserve" font-family="Helvetica,Helvetica" font-size="34.0" fill="#000000" transform="matrix(1.00, 0.00, -0.00, -1.00, 807.2, 304.1)"> </text><text xml:space="preserve" font-family="Helvetica,Helvetica" font-size="34.0" fill="#000000" transform="matrix(1.00, 0.00, -0.00, -1.00, 94.6, 263.1)">p</text><text xml:space="preserve" font-family="Helvetica,Helvetica" font-size="34.0" fill="#000000" transform="matrix(1.00, 0.00, -0.00, -1.00, 113.5, 263.1)">o</text><text xml:space="preserve" font-family="Helvetica,Helvetica" font-size="34.0" fill="#000000" transform="matrix(1.00, 0.00, -0.00, -1.00, 132.4, 263.1)">p</text><text xml:space="preserve" font-family="Helvetica,Helvetica" font-size="34.0" fill="#000000" transform="matrix(1.00, 0.00, -0.00, -1.00, 151.3, 263.1)">u</text><text xml:space="preserve" font-family="Helvetica,Helvetica" font-size="34.0" fill="#000000" transform="matrix(1.00, 0.00, -0.00, -1.00, 170.2, 263.1)">l</text><text xml:space="preserve" font-family="Helvetica,Helvetica" font-size="34.0" fill="#000000" transform="matrix(1.00, 0.00, -0.00, -1.00, 177.8, 263.1)">a</text><text xml:space="preserve" font-family="Helvetica,Helvetica" font-size="34.0" fill="#000000" transform="matrix(1.00, 0.00, -0.00, -1.00, 196.7, 263.1)">t</text><text xml:space="preserve" font-family="Helvetica,Helvetica" font-size="34.0" fill="#000000" transform="matrix(1.00, 0.00, -0.00, -1.00, 206.2, 263.1)">i</text><text xml:space="preserve" font-family="Helvetica,Helvetica" font-size="34.0" fill="#000000" transform="matrix(1.00, 0.00, -0.00, -1.00, 213.7, 263.1)">o</text><text xml:space="preserve" font-family="Helvetica,Helvetica" font-size="34.0" fill="#000000" transform="matrix(1.00, 0.00, -0.00, -1.00, 232.6, 263.1)">n</text><text xml:space="preserve" font-family="Helvetica,Helvetica" font-size="34.0" fill="#000000" transform="matrix(1.00, 0.00, -0.00, -1.00, 251.6, 263.1)">s</text><text xml:space="preserve" font-family="Helvetica,Helvetica" font-size="34.0" fill="#000000" transform="matrix(1.00, 0.00, -0.00, -1.00, 56.3, 216.3)">•</text><text xml:space="preserve" font-family="Helvetica,Helvetica" font-size="34.0" fill="#000000" transform="matrix(1.00, 0.00, -0.00, -1.00, 94.6, 216.3)">u</text><text xml:space="preserve" font-family="Helvetica,Helvetica" font-size="34.0" fill="#000000" transform="matrix(1.00, 0.00, -0.00, -1.00, 113.5, 216.3)">s</text><text xml:space="preserve" font-family="Helvetica,Helvetica" font-size="34.0" fill="#000000" transform="matrix(1.00, 0.00, -0.00, -1.00, 130.5, 216.3)">e</text><text xml:space="preserve" font-family="Helvetica,Helvetica" font-size="34.0" fill="#000000" transform="matrix(1.00, 0.00, -0.00, -1.00, 149.4, 216.3)"> </text><text xml:space="preserve" font-family="Helvetica,Helvetica" font-size="34.0" fill="#000000" transform="matrix(1.00, 0.00, -0.00, -1.00, 158.8, 216.3)">a</text><text xml:space="preserve" font-family="Helvetica,Helvetica" font-size="34.0" fill="#000000" transform="matrix(1.00, 0.00, -0.00, -1.00, 177.8, 216.3)">n</text><text xml:space="preserve" font-family="Helvetica,Helvetica" font-size="34.0" fill="#000000" transform="matrix(1.00, 0.00, -0.00, -1.00, 196.7, 216.3)"> </text><text xml:space="preserve" font-family="Helvetica,Helvetica" font-size="34.0" fill="#000000" transform="matrix(1.00, 0.00, -0.00, -1.00, 206.1, 216.3)">e</text><text xml:space="preserve" font-family="Helvetica,Helvetica" font-size="34.0" fill="#000000" transform="matrix(1.00, 0.00, -0.00, -1.00, 225.0, 216.3)">v</text><text xml:space="preserve" font-family="Helvetica,Helvetica" font-size="34.0" fill="#000000" transform="matrix(1.00, 0.00, -0.00, -1.00, 242.0, 216.3)">o</text><text xml:space="preserve" font-family="Helvetica,Helvetica" font-size="34.0" fill="#000000" transform="matrix(1.00, 0.00, -0.00, -1.00, 260.9, 216.3)">l</text><text xml:space="preserve" font-family="Helvetica,Helvetica" font-size="34.0" fill="#000000" transform="matrix(1.00, 0.00, -0.00, -1.00, 268.5, 216.3)">u</text><text xml:space="preserve" font-family="Helvetica,Helvetica" font-size="34.0" fill="#000000" transform="matrix(1.00, 0.00, -0.00, -1.00, 287.4, 216.3)">t</text><text xml:space="preserve" font-family="Helvetica,Helvetica" font-size="34.0" fill="#000000" transform="matrix(1.00, 0.00, -0.00, -1.00, 296.9, 216.3)">i</text><text xml:space="preserve" font-family="Helvetica,Helvetica" font-size="34.0" fill="#000000" transform="matrix(1.00, 0.00, -0.00, -1.00, 304.4, 216.3)">o</text><text xml:space="preserve" font-family="Helvetica,Helvetica" font-size="34.0" fill="#000000" transform="matrix(1.00, 0.00, -0.00, -1.00, 323.3, 216.3)">n</text><text xml:space="preserve" font-family="Helvetica,Helvetica" font-size="34.0" fill="#000000" transform="matrix(1.00, 0.00, -0.00, -1.00, 342.3, 216.3)">a</text><text xml:space="preserve" font-family="Helvetica,Helvetica" font-size="34.0" fill="#000000" transform="matrix(1.00, 0.00, -0.00, -1.00, 361.2, 216.3)">r</text><text xml:space="preserve" font-family="Helvetica,Helvetica" font-size="34.0" fill="#000000" transform="matrix(1.00, 0.00, -0.00, -1.00, 372.5, 216.3)">y</text><text xml:space="preserve" font-family="Helvetica,Helvetica" font-size="34.0" fill="#000000" transform="matrix(1.00, 0.00, -0.00, -1.00, 389.5, 216.3)"> </text><text xml:space="preserve" font-family="Helvetica,Helvetica" font-size="34.0" fill="#000000" transform="matrix(1.00, 0.00, -0.00, -1.00, 398.9, 216.3)">g</text><text xml:space="preserve" font-family="Helvetica,Helvetica" font-size="34.0" fill="#000000" transform="matrix(1.00, 0.00, -0.00, -1.00, 417.8, 216.3)">e</text><text xml:space="preserve" font-family="Helvetica,Helvetica" font-size="34.0" fill="#000000" transform="matrix(1.00, 0.00, -0.00, -1.00, 436.8, 216.3)">n</text><text xml:space="preserve" font-family="Helvetica,Helvetica" font-size="34.0" fill="#000000" transform="matrix(1.00, 0.00, -0.00, -1.00, 455.7, 216.3)">e</text><text xml:space="preserve" font-family="Helvetica,Helvetica" font-size="34.0" fill="#000000" transform="matrix(1.00, 0.00, -0.00, -1.00, 474.6, 216.3)">t</text><text xml:space="preserve" font-family="Helvetica,Helvetica" font-size="34.0" fill="#000000" transform="matrix(1.00, 0.00, -0.00, -1.00, 484.0, 216.3)">i</text><text xml:space="preserve" font-family="Helvetica,Helvetica" font-size="34.0" fill="#000000" transform="matrix(1.00, 0.00, -0.00, -1.00, 491.6, 216.3)">c</text><text xml:space="preserve" font-family="Helvetica,Helvetica" font-size="34.0" fill="#000000" transform="matrix(1.00, 0.00, -0.00, -1.00, 508.6, 216.3)">s</text><text xml:space="preserve" font-family="Helvetica,Helvetica" font-size="34.0" fill="#000000" transform="matrix(1.00, 0.00, -0.00, -1.00, 525.6, 216.3)"> </text><text xml:space="preserve" font-family="Helvetica,Helvetica" font-size="34.0" fill="#000000" transform="matrix(1.00, 0.00, -0.00, -1.00, 535.0, 216.3)">m</text><text xml:space="preserve" font-family="Helvetica,Helvetica" font-size="34.0" fill="#000000" transform="matrix(1.00, 0.00, -0.00, -1.00, 563.4, 216.3)">o</text><text xml:space="preserve" font-family="Helvetica,Helvetica" font-size="34.0" fill="#000000" transform="matrix(1.00, 0.00, -0.00, -1.00, 582.3, 216.3)">d</text><text xml:space="preserve" font-family="Helvetica,Helvetica" font-size="34.0" fill="#000000" transform="matrix(1.00, 0.00, -0.00, -1.00, 601.2, 216.3)">e</text><text xml:space="preserve" font-family="Helvetica,Helvetica" font-size="34.0" fill="#000000" transform="matrix(1.00, 0.00, -0.00, -1.00, 620.1, 216.3)">l</text><text xml:space="preserve" font-family="Helvetica,Helvetica" font-size="34.0" fill="#000000" transform="matrix(1.00, 0.00, -0.00, -1.00, 627.7, 216.3)"> </text><text xml:space="preserve" font-family="Helvetica,Helvetica" font-size="34.0" fill="#000000" transform="matrix(1.00, 0.00, -0.00, -1.00, 637.1, 216.3)">t</text><text xml:space="preserve" font-family="Helvetica,Helvetica" font-size="34.0" fill="#000000" transform="matrix(1.00, 0.00, -0.00, -1.00, 646.5, 216.3)">o</text><text xml:space="preserve" font-family="Helvetica,Helvetica" font-size="34.0" fill="#000000" transform="matrix(1.00, 0.00, -0.00, -1.00, 665.5, 216.3)"> </text><text xml:space="preserve" font-family="Helvetica,Helvetica" font-size="34.0" fill="#000000" transform="matrix(1.00, 0.00, -0.00, -1.00, 674.9, 216.3)">a</text><text xml:space="preserve" font-family="Helvetica,Helvetica" font-size="34.0" fill="#000000" transform="matrix(1.00, 0.00, -0.00, -1.00, 693.8, 216.3)">s</text><text xml:space="preserve" font-family="Helvetica,Helvetica" font-size="34.0" fill="#000000" transform="matrix(1.00, 0.00, -0.00, -1.00, 710.8, 216.3)">s</text><text xml:space="preserve" font-family="Helvetica,Helvetica" font-size="34.0" fill="#000000" transform="matrix(1.00, 0.00, -0.00, -1.00, 727.8, 216.3)">i</text><text xml:space="preserve" font-family="Helvetica,Helvetica" font-size="34.0" fill="#000000" transform="matrix(1.00, 0.00, -0.00, -1.00, 735.4, 216.3)">g</text><text xml:space="preserve" font-family="Helvetica,Helvetica" font-size="34.0" fill="#000000" transform="matrix(1.00, 0.00, -0.00, -1.00, 754.3, 216.3)">n</text><text xml:space="preserve" font-family="Helvetica,Helvetica" font-size="34.0" fill="#000000" transform="matrix(1.00, 0.00, -0.00, -1.00, 773.2, 216.3)"> </text><text xml:space="preserve" font-family="Helvetica,Helvetica" font-size="34.0" fill="#000000" transform="matrix(1.00, 0.00, -0.00, -1.00, 782.6, 216.3)">t</text><text xml:space="preserve" font-family="Helvetica,Helvetica" font-size="34.0" fill="#000000" transform="matrix(1.00, 0.00, -0.00, -1.00, 792.1, 216.3)">h</text><text xml:space="preserve" font-family="Helvetica,Helvetica" font-size="34.0" fill="#000000" transform="matrix(1.00, 0.00, -0.00, -1.00, 811.0, 216.3)">e</text><text xml:space="preserve" font-family="Helvetica,Helvetica" font-size="34.0" fill="#000000" transform="matrix(1.00, 0.00, -0.00, -1.00, 829.9, 216.3)"> </text><text xml:space="preserve" font-family="Helvetica,Helvetica" font-size="34.0" fill="#000000" transform="matrix(1.00, 0.00, -0.00, -1.00, 839.4, 216.3)">m</text><text xml:space="preserve" font-family="Helvetica,Helvetica" font-size="34.0" fill="#000000" transform="matrix(1.00, 0.00, -0.00, -1.00, 867.7, 216.3)">o</text><text xml:space="preserve" font-family="Helvetica,Helvetica" font-size="34.0" fill="#000000" transform="matrix(1.00, 0.00, -0.00, -1.00, 886.6, 216.3)">s</text><text xml:space="preserve" font-family="Helvetica,Helvetica" font-size="34.0" fill="#000000" transform="matrix(1.00, 0.00, -0.00, -1.00, 903.6, 216.3)">t</text><text xml:space="preserve" font-family="Helvetica,Helvetica" font-size="34.0" fill="#000000" transform="matrix(1.00, 0.00, -0.00, -1.00, 913.0, 216.3)"> </text><text xml:space="preserve" font-family="Helvetica,Helvetica" font-size="34.0" fill="#000000" transform="matrix(1.00, 0.00, -0.00, -1.00, 94.6, 175.3)">l</text><text xml:space="preserve" font-family="Helvetica,Helvetica" font-size="34.0" fill="#000000" transform="matrix(1.00, 0.00, -0.00, -1.00, 102.1, 175.3)">i</text><text xml:space="preserve" font-family="Helvetica,Helvetica" font-size="34.0" fill="#000000" transform="matrix(1.00, 0.00, -0.00, -1.00, 109.7, 175.3)">k</text><text xml:space="preserve" font-family="Helvetica,Helvetica" font-size="34.0" fill="#000000" transform="matrix(1.00, 0.00, -0.00, -1.00, 126.7, 175.3)">e</text><text xml:space="preserve" font-family="Helvetica,Helvetica" font-size="34.0" fill="#000000" transform="matrix(1.00, 0.00, -0.00, -1.00, 145.6, 175.3)">l</text><text xml:space="preserve" font-family="Helvetica,Helvetica" font-size="34.0" fill="#000000" transform="matrix(1.00, 0.00, -0.00, -1.00, 153.2, 175.3)">y</text><text xml:space="preserve" font-family="Helvetica,Helvetica" font-size="34.0" fill="#000000" transform="matrix(1.00, 0.00, -0.00, -1.00, 170.2, 175.3)"> </text><text xml:space="preserve" font-family="Helvetica,Helvetica" font-size="34.0" fill="#000000" transform="matrix(1.00, 0.00, -0.00, -1.00, 179.6, 175.3)">a</text><text xml:space="preserve" font-family="Helvetica,Helvetica" font-size="34.0" fill="#000000" transform="matrix(1.00, 0.00, -0.00, -1.00, 198.5, 175.3)">n</text><text xml:space="preserve" font-family="Helvetica,Helvetica" font-size="34.0" fill="#000000" transform="matrix(1.00, 0.00, -0.00, -1.00, 217.4, 175.3)">c</text><text xml:space="preserve" font-family="Helvetica,Helvetica" font-size="34.0" fill="#000000" transform="matrix(1.00, 0.00, -0.00, -1.00, 234.4, 175.3)">e</text><text xml:space="preserve" font-family="Helvetica,Helvetica" font-size="34.0" fill="#000000" transform="matrix(1.00, 0.00, -0.00, -1.00, 253.4, 175.3)">s</text><text xml:space="preserve" font-family="Helvetica,Helvetica" font-size="34.0" fill="#000000" transform="matrix(1.00, 0.00, -0.00, -1.00, 270.4, 175.3)">t</text><text xml:space="preserve" font-family="Helvetica,Helvetica" font-size="34.0" fill="#000000" transform="matrix(1.00, 0.00, -0.00, -1.00, 279.8, 175.3)">r</text><text xml:space="preserve" font-family="Helvetica,Helvetica" font-size="34.0" fill="#000000" transform="matrix(1.00, 0.00, -0.00, -1.00, 291.1, 175.3)">y</text><text xml:space="preserve" font-family="Helvetica,Helvetica" font-size="34.0" fill="#000000" transform="matrix(1.00, 0.00, -0.00, -1.00, 308.1, 175.3)"> </text><text xml:space="preserve" font-family="Helvetica,Helvetica" font-size="34.0" fill="#000000" transform="matrix(1.00, 0.00, -0.00, -1.00, 317.6, 175.3)">t</text><text xml:space="preserve" font-family="Helvetica,Helvetica" font-size="34.0" fill="#000000" transform="matrix(1.00, 0.00, -0.00, -1.00, 327.0, 175.3)">o</text><text xml:space="preserve" font-family="Helvetica,Helvetica" font-size="34.0" fill="#000000" transform="matrix(1.00, 0.00, -0.00, -1.00, 345.9, 175.3)"> </text><text xml:space="preserve" font-family="Helvetica,Helvetica" font-size="34.0" fill="#000000" transform="matrix(1.00, 0.00, -0.00, -1.00, 355.4, 175.3)">e</text><text xml:space="preserve" font-family="Helvetica,Helvetica" font-size="34.0" fill="#000000" transform="matrix(1.00, 0.00, -0.00, -1.00, 374.3, 175.3)">a</text><text xml:space="preserve" font-family="Helvetica,Helvetica" font-size="34.0" fill="#000000" transform="matrix(1.00, 0.00, -0.00, -1.00, 393.2, 175.3)">c</text><text xml:space="preserve" font-family="Helvetica,Helvetica" font-size="34.0" fill="#000000" transform="matrix(1.00, 0.00, -0.00, -1.00, 410.2, 175.3)">h</text><text xml:space="preserve" font-family="Helvetica,Helvetica" font-size="34.0" fill="#000000" transform="matrix(1.00, 0.00, -0.00, -1.00, 429.1, 175.3)"> </text><text xml:space="preserve" font-family="Helvetica,Helvetica" font-size="34.0" fill="#000000" transform="matrix(1.00, 0.00, -0.00, -1.00, 438.5, 175.3)">i</text><text xml:space="preserve" font-family="Helvetica,Helvetica" font-size="34.0" fill="#000000" transform="matrix(1.00, 0.00, -0.00, -1.00, 446.1, 175.3)">n</text><text xml:space="preserve" font-family="Helvetica,Helvetica" font-size="34.0" fill="#000000" transform="matrix(1.00, 0.00, -0.00, -1.00, 465.0, 175.3)">d</text><text xml:space="preserve" font-family="Helvetica,Helvetica" font-size="34.0" fill="#000000" transform="matrix(1.00, 0.00, -0.00, -1.00, 483.9, 175.3)">i</text><text xml:space="preserve" font-family="Helvetica,Helvetica" font-size="34.0" fill="#000000" transform="matrix(1.00, 0.00, -0.00, -1.00, 491.5, 175.3)">v</text><text xml:space="preserve" font-family="Helvetica,Helvetica" font-size="34.0" fill="#000000" transform="matrix(1.00, 0.00, -0.00, -1.00, 508.5, 175.3)">i</text><text xml:space="preserve" font-family="Helvetica,Helvetica" font-size="34.0" fill="#000000" transform="matrix(1.00, 0.00, -0.00, -1.00, 516.1, 175.3)">d</text><text xml:space="preserve" font-family="Helvetica,Helvetica" font-size="34.0" fill="#000000" transform="matrix(1.00, 0.00, -0.00, -1.00, 535.0, 175.3)">u</text><text xml:space="preserve" font-family="Helvetica,Helvetica" font-size="34.0" fill="#000000" transform="matrix(1.00, 0.00, -0.00, -1.00, 553.9, 175.3)">a</text><text xml:space="preserve" font-family="Helvetica,Helvetica" font-size="34.0" fill="#000000" transform="matrix(1.00, 0.00, -0.00, -1.00, 572.8, 175.3)">l</text><image xlink:href="../../8BD46FBE-28A5-4DF3-8C69-54C0144F2D10/assets/8FBA470C21370C0D0C74DA86577E315A.png" width="803.00" height="251.00" transform="matrix(1.25, 0.00, -0.00, -1.25, 8.0, 657.0)"></image></g></svg>