<?xml version="1.0" encoding="UTF-8" standalone="no"?><svg xmlns="http://www.w3.org/2000/svg" xmlns:xlink="http://www.w3.org/1999/xlink" clip-rule="evenodd" stroke-miterlimit="10" viewBox="0 0 671 187"><desc>SVG generated by Keynote</desc><defs></defs><g transform="matrix(1.00, 0.00, -0.00, -1.00, 0.0, 187.0)"><text xml:space="preserve" font-family="GillSans,Gill Sans" font-size="41.0" fill="#000000" transform="matrix(1.00, 0.00, -0.00, -1.00, 0.0, 149.0)">•</text><text xml:space="preserve" font-family="GillSans,Gill Sans" font-size="24.0" fill="#000000" transform="matrix(1.00, 0.00, -0.00, -1.00, 22.0, 154.5)">G</text><text xml:space="preserve" font-family="GillSans,Gill Sans" font-size="24.0" fill="#000000" transform="matrix(1.00, 0.00, -0.00, -1.00, 39.8, 154.5)">e</text><text xml:space="preserve" font-family="GillSans,Gill Sans" font-size="24.0" fill="#000000" transform="matrix(1.00, 0.00, -0.00, -1.00, 51.3, 154.5)">n</text><text xml:space="preserve" font-family="GillSans,Gill Sans" font-size="24.0" fill="#000000" transform="matrix(1.00, 0.00, -0.00, -1.00, 63.3, 154.5)">o</text><text xml:space="preserve" font-family="GillSans,Gill Sans" font-size="24.0" fill="#000000" transform="matrix(1.00, 0.00, -0.00, -1.00, 76.5, 154.5)">t</text><text xml:space="preserve" font-family="GillSans,Gill Sans" font-size="24.0" fill="#000000" transform="matrix(1.00, 0.00, -0.00, -1.00, 84.5, 154.5)">y</text><text xml:space="preserve" font-family="GillSans,Gill Sans" font-size="24.0" fill="#000000" transform="matrix(1.00, 0.00, -0.00, -1.00, 95.0, 154.5)">p</text><text xml:space="preserve" font-family="GillSans,Gill Sans" font-size="24.0" fill="#000000" transform="matrix(1.00, 0.00, -0.00, -1.00, 107.0, 154.5)">e</text><text xml:space="preserve" font-family="GillSans,Gill Sans" font-size="24.0" fill="#000000" transform="matrix(1.00, 0.00, -0.00, -1.00, 118.5, 154.5)">s</text><text xml:space="preserve" font-family="GillSans,Gill Sans" font-size="24.0" fill="#000000" transform="matrix(1.00, 0.00, -0.00, -1.00, 127.7, 154.5)">:</text><text xml:space="preserve" font-family="GillSans,Gill Sans" font-size="34.2" fill="#000000" transform="matrix(1.00, 0.00, -0.00, -1.00, 35.0, 113.9)">•</text><text xml:space="preserve" font-family="GillSans,Gill Sans" font-size="20.0" fill="#000000" transform="matrix(1.00, 0.00, -0.00, -1.00, 57.0, 118.6)">S</text><text xml:space="preserve" font-family="GillSans,Gill Sans" font-size="20.0" fill="#000000" transform="matrix(1.00, 0.00, -0.00, -1.00, 66.2, 118.6)">e</text><text xml:space="preserve" font-family="GillSans,Gill Sans" font-size="20.0" fill="#000000" transform="matrix(1.00, 0.00, -0.00, -1.00, 75.7, 118.6)">q</text><text xml:space="preserve" font-family="GillSans,Gill Sans" font-size="20.0" fill="#000000" transform="matrix(1.00, 0.00, -0.00, -1.00, 85.7, 118.6)">u</text><text xml:space="preserve" font-family="GillSans,Gill Sans" font-size="20.0" fill="#000000" transform="matrix(1.00, 0.00, -0.00, -1.00, 95.7, 118.6)">e</text><text xml:space="preserve" font-family="GillSans,Gill Sans" font-size="20.0" fill="#000000" transform="matrix(1.00, 0.00, -0.00, -1.00, 105.3, 118.6)">n</text><text xml:space="preserve" font-family="GillSans,Gill Sans" font-size="20.0" fill="#000000" transform="matrix(1.00, 0.00, -0.00, -1.00, 115.3, 118.6)">c</text><text xml:space="preserve" font-family="GillSans,Gill Sans" font-size="20.0" fill="#000000" transform="matrix(1.00, 0.00, -0.00, -1.00, 124.1, 118.6)">e</text><text xml:space="preserve" font-family="GillSans,Gill Sans" font-size="20.0" fill="#000000" transform="matrix(1.00, 0.00, -0.00, -1.00, 133.7, 118.6)"> </text><text xml:space="preserve" font-family="GillSans,Gill Sans" font-size="20.0" fill="#000000" transform="matrix(1.00, 0.00, -0.00, -1.00, 139.2, 118.6)">2</text><text xml:space="preserve" font-family="GillSans,Gill Sans" font-size="20.0" fill="#000000" transform="matrix(1.00, 0.00, -0.00, -1.00, 149.2, 118.6)">0</text><text xml:space="preserve" font-family="GillSans,Gill Sans" font-size="20.0" fill="#000000" transform="matrix(1.00, 0.00, -0.00, -1.00, 159.2, 118.6)"> </text><text xml:space="preserve" font-family="GillSans,Gill Sans" font-size="20.0" fill="#000000" transform="matrix(1.00, 0.00, -0.00, -1.00, 164.8, 118.6)">s</text><text xml:space="preserve" font-family="GillSans,Gill Sans" font-size="20.0" fill="#000000" transform="matrix(1.00, 0.00, -0.00, -1.00, 172.5, 118.6)">t</text><text xml:space="preserve" font-family="GillSans,Gill Sans" font-size="20.0" fill="#000000" transform="matrix(1.00, 0.00, -0.00, -1.00, 179.1, 118.6)">r</text><text xml:space="preserve" font-family="GillSans,Gill Sans" font-size="20.0" fill="#000000" transform="matrix(1.00, 0.00, -0.00, -1.00, 187.0, 118.6)">a</text><text xml:space="preserve" font-family="GillSans,Gill Sans" font-size="20.0" fill="#000000" transform="matrix(1.00, 0.00, -0.00, -1.00, 195.6, 118.6)">i</text><text xml:space="preserve" font-family="GillSans,Gill Sans" font-size="20.0" fill="#000000" transform="matrix(1.00, 0.00, -0.00, -1.00, 200.0, 118.6)">n</text><text xml:space="preserve" font-family="GillSans,Gill Sans" font-size="20.0" fill="#000000" transform="matrix(1.00, 0.00, -0.00, -1.00, 210.0, 118.6)">s</text><text xml:space="preserve" font-family="GillSans,Gill Sans" font-size="20.0" fill="#000000" transform="matrix(1.00, 0.00, -0.00, -1.00, 217.6, 118.6)">,</text><text xml:space="preserve" font-family="GillSans,Gill Sans" font-size="20.0" fill="#000000" transform="matrix(1.00, 0.00, -0.00, -1.00, 220.0, 118.6)"> </text><text xml:space="preserve" font-family="GillSans,Gill Sans" font-size="20.0" fill="#000000" transform="matrix(1.00, 0.00, -0.00, -1.00, 225.6, 118.6)">ﬁ</text><text xml:space="preserve" font-family="GillSans,Gill Sans" font-size="20.0" fill="#000000" transform="matrix(1.00, 0.00, -0.00, -1.00, 235.6, 118.6)">n</text><text xml:space="preserve" font-family="GillSans,Gill Sans" font-size="20.0" fill="#000000" transform="matrix(1.00, 0.00, -0.00, -1.00, 245.6, 118.6)">d</text><text xml:space="preserve" font-family="GillSans,Gill Sans" font-size="20.0" fill="#000000" transform="matrix(1.00, 0.00, -0.00, -1.00, 255.8, 118.6)"> </text><text xml:space="preserve" font-family="GillSans,Gill Sans" font-size="20.0" fill="#000000" transform="matrix(1.00, 0.00, -0.00, -1.00, 261.3, 118.6)">c</text><text xml:space="preserve" font-family="GillSans,Gill Sans" font-size="20.0" fill="#000000" transform="matrix(1.00, 0.00, -0.00, -1.00, 270.1, 118.6)">o</text><text xml:space="preserve" font-family="GillSans,Gill Sans" font-size="20.0" fill="#000000" transform="matrix(1.00, 0.00, -0.00, -1.00, 281.1, 118.6)">m</text><text xml:space="preserve" font-family="GillSans,Gill Sans" font-size="20.0" fill="#000000" transform="matrix(1.00, 0.00, -0.00, -1.00, 296.5, 118.6)">m</text><text xml:space="preserve" font-family="GillSans,Gill Sans" font-size="20.0" fill="#000000" transform="matrix(1.00, 0.00, -0.00, -1.00, 312.0, 118.6)">o</text><text xml:space="preserve" font-family="GillSans,Gill Sans" font-size="20.0" fill="#000000" transform="matrix(1.00, 0.00, -0.00, -1.00, 323.0, 118.6)">n</text><text xml:space="preserve" font-family="GillSans,Gill Sans" font-size="20.0" fill="#000000" transform="matrix(1.00, 0.00, -0.00, -1.00, 333.0, 118.6)"> </text><text xml:space="preserve" font-family="GillSans,Gill Sans" font-size="20.0" fill="#000000" transform="matrix(1.00, 0.00, -0.00, -1.00, 338.5, 118.6)">S</text><text xml:space="preserve" font-family="GillSans,Gill Sans" font-size="20.0" fill="#000000" transform="matrix(1.00, 0.00, -0.00, -1.00, 347.7, 118.6)">N</text><text xml:space="preserve" font-family="GillSans,Gill Sans" font-size="20.0" fill="#000000" transform="matrix(1.00, 0.00, -0.00, -1.00, 363.3, 118.6)">P</text><text xml:space="preserve" font-family="GillSans,Gill Sans" font-size="20.0" fill="#000000" transform="matrix(1.00, 0.00, -0.00, -1.00, 373.5, 118.6)">s</text><text xml:space="preserve" font-family="GillSans,Gill Sans" font-size="34.2" fill="#000000" transform="matrix(1.00, 0.00, -0.00, -1.00, 35.0, 78.9)">•</text><text xml:space="preserve" font-family="GillSans,Gill Sans" font-size="20.0" fill="#000000" transform="matrix(1.00, 0.00, -0.00, -1.00, 57.0, 83.6)">D</text><text xml:space="preserve" font-family="GillSans,Gill Sans" font-size="20.0" fill="#000000" transform="matrix(1.00, 0.00, -0.00, -1.00, 72.0, 83.6)">e</text><text xml:space="preserve" font-family="GillSans,Gill Sans" font-size="20.0" fill="#000000" transform="matrix(1.00, 0.00, -0.00, -1.00, 81.6, 83.6)">s</text><text xml:space="preserve" font-family="GillSans,Gill Sans" font-size="20.0" fill="#000000" transform="matrix(1.00, 0.00, -0.00, -1.00, 89.3, 83.6)">i</text><text xml:space="preserve" font-family="GillSans,Gill Sans" font-size="20.0" fill="#000000" transform="matrix(1.00, 0.00, -0.00, -1.00, 93.7, 83.6)">g</text><text xml:space="preserve" font-family="GillSans,Gill Sans" font-size="20.0" fill="#000000" transform="matrix(1.00, 0.00, -0.00, -1.00, 102.2, 83.6)">n</text><text xml:space="preserve" font-family="GillSans,Gill Sans" font-size="20.0" fill="#000000" transform="matrix(1.00, 0.00, -0.00, -1.00, 112.2, 83.6)"> </text><text xml:space="preserve" font-family="GillSans,Gill Sans" font-size="20.0" fill="#000000" transform="matrix(1.00, 0.00, -0.00, -1.00, 115.7, 83.6)">A</text><text xml:space="preserve" font-family="GillSans,Gill Sans" font-size="20.0" fill="#000000" transform="matrix(1.00, 0.00, -0.00, -1.00, 129.1, 83.6)">f</text><text xml:space="preserve" font-family="GillSans,Gill Sans" font-size="20.0" fill="#000000" transform="matrix(1.00, 0.00, -0.00, -1.00, 134.1, 83.6)">f</text><text xml:space="preserve" font-family="GillSans,Gill Sans" font-size="20.0" fill="#000000" transform="matrix(1.00, 0.00, -0.00, -1.00, 139.1, 83.6)">y</text><text xml:space="preserve" font-family="GillSans,Gill Sans" font-size="20.0" fill="#000000" transform="matrix(1.00, 0.00, -0.00, -1.00, 147.8, 83.6)">m</text><text xml:space="preserve" font-family="GillSans,Gill Sans" font-size="20.0" fill="#000000" transform="matrix(1.00, 0.00, -0.00, -1.00, 163.3, 83.6)">e</text><text xml:space="preserve" font-family="GillSans,Gill Sans" font-size="20.0" fill="#000000" transform="matrix(1.00, 0.00, -0.00, -1.00, 172.8, 83.6)">t</text><text xml:space="preserve" font-family="GillSans,Gill Sans" font-size="20.0" fill="#000000" transform="matrix(1.00, 0.00, -0.00, -1.00, 179.5, 83.6)">r</text><text xml:space="preserve" font-family="GillSans,Gill Sans" font-size="20.0" fill="#000000" transform="matrix(1.00, 0.00, -0.00, -1.00, 187.4, 83.6)">i</text><text xml:space="preserve" font-family="GillSans,Gill Sans" font-size="20.0" fill="#000000" transform="matrix(1.00, 0.00, -0.00, -1.00, 191.8, 83.6)">x</text><text xml:space="preserve" font-family="GillSans,Gill Sans" font-size="20.0" fill="#000000" transform="matrix(1.00, 0.00, -0.00, -1.00, 201.8, 83.6)"> </text><text xml:space="preserve" font-family="GillSans,Gill Sans" font-size="20.0" fill="#000000" transform="matrix(1.00, 0.00, -0.00, -1.00, 205.4, 83.6)">“</text><text xml:space="preserve" font-family="GillSans,Gill Sans" font-size="20.0" fill="#000000" transform="matrix(1.00, 0.00, -0.00, -1.00, 213.9, 83.6)">S</text><text xml:space="preserve" font-family="GillSans,Gill Sans" font-size="20.0" fill="#000000" transform="matrix(1.00, 0.00, -0.00, -1.00, 223.1, 83.6)">N</text><text xml:space="preserve" font-family="GillSans,Gill Sans" font-size="20.0" fill="#000000" transform="matrix(1.00, 0.00, -0.00, -1.00, 238.7, 83.6)">P</text><text xml:space="preserve" font-family="GillSans,Gill Sans" font-size="20.0" fill="#000000" transform="matrix(1.00, 0.00, -0.00, -1.00, 248.9, 83.6)"> </text><text xml:space="preserve" font-family="GillSans,Gill Sans" font-size="20.0" fill="#000000" transform="matrix(1.00, 0.00, -0.00, -1.00, 254.4, 83.6)">c</text><text xml:space="preserve" font-family="GillSans,Gill Sans" font-size="20.0" fill="#000000" transform="matrix(1.00, 0.00, -0.00, -1.00, 263.2, 83.6)">h</text><text xml:space="preserve" font-family="GillSans,Gill Sans" font-size="20.0" fill="#000000" transform="matrix(1.00, 0.00, -0.00, -1.00, 273.2, 83.6)">i</text><text xml:space="preserve" font-family="GillSans,Gill Sans" font-size="20.0" fill="#000000" transform="matrix(1.00, 0.00, -0.00, -1.00, 277.6, 83.6)">p</text><text xml:space="preserve" font-family="GillSans,Gill Sans" font-size="20.0" fill="#000000" transform="matrix(1.00, 0.00, -0.00, -1.00, 287.6, 83.6)">”</text><text xml:space="preserve" font-family="GillSans,Gill Sans" font-size="34.2" fill="#000000" transform="matrix(1.00, 0.00, -0.00, -1.00, 35.0, 43.9)">•</text><text xml:space="preserve" font-family="GillSans,Gill Sans" font-size="20.0" fill="#000000" transform="matrix(1.00, 0.00, -0.00, -1.00, 57.0, 48.6)">A</text><text xml:space="preserve" font-family="GillSans,Gill Sans" font-size="20.0" fill="#000000" transform="matrix(1.00, 0.00, -0.00, -1.00, 70.3, 48.6)">s</text><text xml:space="preserve" font-family="GillSans,Gill Sans" font-size="20.0" fill="#000000" transform="matrix(1.00, 0.00, -0.00, -1.00, 78.0, 48.6)">s</text><text xml:space="preserve" font-family="GillSans,Gill Sans" font-size="20.0" fill="#000000" transform="matrix(1.00, 0.00, -0.00, -1.00, 85.7, 48.6)">a</text><text xml:space="preserve" font-family="GillSans,Gill Sans" font-size="20.0" fill="#000000" transform="matrix(1.00, 0.00, -0.00, -1.00, 93.5, 48.6)">y</text><text xml:space="preserve" font-family="GillSans,Gill Sans" font-size="20.0" fill="#000000" transform="matrix(1.00, 0.00, -0.00, -1.00, 102.2, 48.6)"> </text><text xml:space="preserve" font-family="GillSans,Gill Sans" font-size="20.0" fill="#000000" transform="matrix(1.00, 0.00, -0.00, -1.00, 107.8, 48.6)">4</text><text xml:space="preserve" font-family="GillSans,Gill Sans" font-size="20.0" fill="#000000" transform="matrix(1.00, 0.00, -0.00, -1.00, 117.8, 48.6)">4</text><text xml:space="preserve" font-family="GillSans,Gill Sans" font-size="20.0" fill="#000000" transform="matrix(1.00, 0.00, -0.00, -1.00, 127.8, 48.6)">,</text><text xml:space="preserve" font-family="GillSans,Gill Sans" font-size="20.0" fill="#000000" transform="matrix(1.00, 0.00, -0.00, -1.00, 132.2, 48.6)">0</text><text xml:space="preserve" font-family="GillSans,Gill Sans" font-size="20.0" fill="#000000" transform="matrix(1.00, 0.00, -0.00, -1.00, 142.2, 48.6)">0</text><text xml:space="preserve" font-family="GillSans,Gill Sans" font-size="20.0" fill="#000000" transform="matrix(1.00, 0.00, -0.00, -1.00, 152.2, 48.6)">0</text><text xml:space="preserve" font-family="GillSans,Gill Sans" font-size="20.0" fill="#000000" transform="matrix(1.00, 0.00, -0.00, -1.00, 162.2, 48.6)"> </text><text xml:space="preserve" font-family="GillSans,Gill Sans" font-size="20.0" fill="#000000" transform="matrix(1.00, 0.00, -0.00, -1.00, 167.7, 48.6)">S</text><text xml:space="preserve" font-family="GillSans,Gill Sans" font-size="20.0" fill="#000000" transform="matrix(1.00, 0.00, -0.00, -1.00, 176.9, 48.6)">i</text><text xml:space="preserve" font-family="GillSans,Gill Sans" font-size="20.0" fill="#000000" transform="matrix(1.00, 0.00, -0.00, -1.00, 181.3, 48.6)">n</text><text xml:space="preserve" font-family="GillSans,Gill Sans" font-size="20.0" fill="#000000" transform="matrix(1.00, 0.00, -0.00, -1.00, 191.3, 48.6)">g</text><text xml:space="preserve" font-family="GillSans,Gill Sans" font-size="20.0" fill="#000000" transform="matrix(1.00, 0.00, -0.00, -1.00, 199.8, 48.6)">l</text><text xml:space="preserve" font-family="GillSans,Gill Sans" font-size="20.0" fill="#000000" transform="matrix(1.00, 0.00, -0.00, -1.00, 204.2, 48.6)">e</text><text xml:space="preserve" font-family="GillSans,Gill Sans" font-size="20.0" fill="#000000" transform="matrix(1.00, 0.00, -0.00, -1.00, 213.8, 48.6)"> </text><text xml:space="preserve" font-family="GillSans,Gill Sans" font-size="20.0" fill="#000000" transform="matrix(1.00, 0.00, -0.00, -1.00, 219.3, 48.6)">N</text><text xml:space="preserve" font-family="GillSans,Gill Sans" font-size="20.0" fill="#000000" transform="matrix(1.00, 0.00, -0.00, -1.00, 234.9, 48.6)">u</text><text xml:space="preserve" font-family="GillSans,Gill Sans" font-size="20.0" fill="#000000" transform="matrix(1.00, 0.00, -0.00, -1.00, 244.9, 48.6)">c</text><text xml:space="preserve" font-family="GillSans,Gill Sans" font-size="20.0" fill="#000000" transform="matrix(1.00, 0.00, -0.00, -1.00, 253.7, 48.6)">l</text><text xml:space="preserve" font-family="GillSans,Gill Sans" font-size="20.0" fill="#000000" transform="matrix(1.00, 0.00, -0.00, -1.00, 258.1, 48.6)">e</text><text xml:space="preserve" font-family="GillSans,Gill Sans" font-size="20.0" fill="#000000" transform="matrix(1.00, 0.00, -0.00, -1.00, 267.6, 48.6)">o</text><text xml:space="preserve" font-family="GillSans,Gill Sans" font-size="20.0" fill="#000000" transform="matrix(1.00, 0.00, -0.00, -1.00, 278.7, 48.6)">t</text><text xml:space="preserve" font-family="GillSans,Gill Sans" font-size="20.0" fill="#000000" transform="matrix(1.00, 0.00, -0.00, -1.00, 285.3, 48.6)">i</text><text xml:space="preserve" font-family="GillSans,Gill Sans" font-size="20.0" fill="#000000" transform="matrix(1.00, 0.00, -0.00, -1.00, 289.7, 48.6)">d</text><text xml:space="preserve" font-family="GillSans,Gill Sans" font-size="20.0" fill="#000000" transform="matrix(1.00, 0.00, -0.00, -1.00, 299.9, 48.6)">e</text><text xml:space="preserve" font-family="GillSans,Gill Sans" font-size="20.0" fill="#000000" transform="matrix(1.00, 0.00, -0.00, -1.00, 309.5, 48.6)"> </text><text xml:space="preserve" font-family="GillSans,Gill Sans" font-size="20.0" fill="#000000" transform="matrix(1.00, 0.00, -0.00, -1.00, 315.1, 48.6)">P</text><text xml:space="preserve" font-family="GillSans,Gill Sans" font-size="20.0" fill="#000000" transform="matrix(1.00, 0.00, -0.00, -1.00, 324.7, 48.6)">o</text><text xml:space="preserve" font-family="GillSans,Gill Sans" font-size="20.0" fill="#000000" transform="matrix(1.00, 0.00, -0.00, -1.00, 335.8, 48.6)">l</text><text xml:space="preserve" font-family="GillSans,Gill Sans" font-size="20.0" fill="#000000" transform="matrix(1.00, 0.00, -0.00, -1.00, 340.0, 48.6)">y</text><text xml:space="preserve" font-family="GillSans,Gill Sans" font-size="20.0" fill="#000000" transform="matrix(1.00, 0.00, -0.00, -1.00, 348.7, 48.6)">m</text><text xml:space="preserve" font-family="GillSans,Gill Sans" font-size="20.0" fill="#000000" transform="matrix(1.00, 0.00, -0.00, -1.00, 364.1, 48.6)">o</text><text xml:space="preserve" font-family="GillSans,Gill Sans" font-size="20.0" fill="#000000" transform="matrix(1.00, 0.00, -0.00, -1.00, 375.2, 48.6)">r</text><text xml:space="preserve" font-family="GillSans,Gill Sans" font-size="20.0" fill="#000000" transform="matrix(1.00, 0.00, -0.00, -1.00, 383.1, 48.6)">p</text><text xml:space="preserve" font-family="GillSans,Gill Sans" font-size="20.0" fill="#000000" transform="matrix(1.00, 0.00, -0.00, -1.00, 393.1, 48.6)">h</text><text xml:space="preserve" font-family="GillSans,Gill Sans" font-size="20.0" fill="#000000" transform="matrix(1.00, 0.00, -0.00, -1.00, 403.1, 48.6)">i</text><text xml:space="preserve" font-family="GillSans,Gill Sans" font-size="20.0" fill="#000000" transform="matrix(1.00, 0.00, -0.00, -1.00, 407.5, 48.6)">s</text><text xml:space="preserve" font-family="GillSans,Gill Sans" font-size="20.0" fill="#000000" transform="matrix(1.00, 0.00, -0.00, -1.00, 415.2, 48.6)">m</text><text xml:space="preserve" font-family="GillSans,Gill Sans" font-size="20.0" fill="#000000" transform="matrix(1.00, 0.00, -0.00, -1.00, 430.6, 48.6)">s</text><text xml:space="preserve" font-family="GillSans,Gill Sans" font-size="20.0" fill="#000000" transform="matrix(1.00, 0.00, -0.00, -1.00, 438.3, 48.6)"> </text><text xml:space="preserve" font-family="GillSans,Gill Sans" font-size="20.0" fill="#000000" transform="matrix(1.00, 0.00, -0.00, -1.00, 443.8, 48.6)">o</text><text xml:space="preserve" font-family="GillSans,Gill Sans" font-size="20.0" fill="#000000" transform="matrix(1.00, 0.00, -0.00, -1.00, 454.9, 48.6)">n</text><text xml:space="preserve" font-family="GillSans,Gill Sans" font-size="20.0" fill="#000000" transform="matrix(1.00, 0.00, -0.00, -1.00, 464.9, 48.6)"> </text><text xml:space="preserve" font-family="GillSans,Gill Sans" font-size="20.0" fill="#000000" transform="matrix(1.00, 0.00, -0.00, -1.00, 470.4, 48.6)">e</text><text xml:space="preserve" font-family="GillSans,Gill Sans" font-size="20.0" fill="#000000" transform="matrix(1.00, 0.00, -0.00, -1.00, 480.0, 48.6)">a</text><text xml:space="preserve" font-family="GillSans,Gill Sans" font-size="20.0" fill="#000000" transform="matrix(1.00, 0.00, -0.00, -1.00, 488.5, 48.6)">c</text><text xml:space="preserve" font-family="GillSans,Gill Sans" font-size="20.0" fill="#000000" transform="matrix(1.00, 0.00, -0.00, -1.00, 497.3, 48.6)">h</text><text xml:space="preserve" font-family="GillSans,Gill Sans" font-size="20.0" fill="#000000" transform="matrix(1.00, 0.00, -0.00, -1.00, 507.3, 48.6)"> </text><text xml:space="preserve" font-family="GillSans,Gill Sans" font-size="20.0" fill="#000000" transform="matrix(1.00, 0.00, -0.00, -1.00, 512.9, 48.6)">o</text><text xml:space="preserve" font-family="GillSans,Gill Sans" font-size="20.0" fill="#000000" transform="matrix(1.00, 0.00, -0.00, -1.00, 523.9, 48.6)">f</text><text xml:space="preserve" font-family="GillSans,Gill Sans" font-size="20.0" fill="#000000" transform="matrix(1.00, 0.00, -0.00, -1.00, 528.9, 48.6)"> </text><text xml:space="preserve" font-family="GillSans,Gill Sans" font-size="20.0" fill="#000000" transform="matrix(1.00, 0.00, -0.00, -1.00, 534.4, 48.6)">t</text><text xml:space="preserve" font-family="GillSans,Gill Sans" font-size="20.0" fill="#000000" transform="matrix(1.00, 0.00, -0.00, -1.00, 541.1, 48.6)">h</text><text xml:space="preserve" font-family="GillSans,Gill Sans" font-size="20.0" fill="#000000" transform="matrix(1.00, 0.00, -0.00, -1.00, 551.1, 48.6)">e</text><text xml:space="preserve" font-family="GillSans,Gill Sans" font-size="20.0" fill="#000000" transform="matrix(1.00, 0.00, -0.00, -1.00, 560.7, 48.6)"> </text><text xml:space="preserve" font-family="GillSans,Gill Sans" font-size="20.0" fill="#000000" transform="matrix(1.00, 0.00, -0.00, -1.00, 566.2, 48.6)">4</text><text xml:space="preserve" font-family="GillSans,Gill Sans" font-size="20.0" fill="#000000" transform="matrix(1.00, 0.00, -0.00, -1.00, 576.2, 48.6)">1</text><text xml:space="preserve" font-family="GillSans,Gill Sans" font-size="20.0" fill="#000000" transform="matrix(1.00, 0.00, -0.00, -1.00, 586.2, 48.6)">3</text><text xml:space="preserve" font-family="GillSans,Gill Sans" font-size="20.0" fill="#000000" transform="matrix(1.00, 0.00, -0.00, -1.00, 596.2, 48.6)"> </text><text xml:space="preserve" font-family="GillSans,Gill Sans" font-size="20.0" fill="#000000" transform="matrix(1.00, 0.00, -0.00, -1.00, 601.8, 48.6)">v</text><text xml:space="preserve" font-family="GillSans,Gill Sans" font-size="20.0" fill="#000000" transform="matrix(1.00, 0.00, -0.00, -1.00, 610.5, 48.6)">a</text><text xml:space="preserve" font-family="GillSans,Gill Sans" font-size="20.0" fill="#000000" transform="matrix(1.00, 0.00, -0.00, -1.00, 619.1, 48.6)">r</text><text xml:space="preserve" font-family="GillSans,Gill Sans" font-size="20.0" fill="#000000" transform="matrix(1.00, 0.00, -0.00, -1.00, 627.0, 48.6)">i</text><text xml:space="preserve" font-family="GillSans,Gill Sans" font-size="20.0" fill="#000000" transform="matrix(1.00, 0.00, -0.00, -1.00, 631.4, 48.6)">e</text><text xml:space="preserve" font-family="GillSans,Gill Sans" font-size="20.0" fill="#000000" transform="matrix(1.00, 0.00, -0.00, -1.00, 641.0, 48.6)">t</text><text xml:space="preserve" font-family="GillSans,Gill Sans" font-size="20.0" fill="#000000" transform="matrix(1.00, 0.00, -0.00, -1.00, 647.6, 48.6)">i</text><text xml:space="preserve" font-family="GillSans,Gill Sans" font-size="20.0" fill="#000000" transform="matrix(1.00, 0.00, -0.00, -1.00, 652.0, 48.6)">e</text><text xml:space="preserve" font-family="GillSans,Gill Sans" font-size="20.0" fill="#000000" transform="matrix(1.00, 0.00, -0.00, -1.00, 661.6, 48.6)">s</text><text xml:space="preserve" font-family="GillSans,Gill Sans" font-size="34.2" fill="#000000" transform="matrix(1.00, 0.00, -0.00, -1.00, 35.0, 8.9)">•</text><text xml:space="preserve" font-family="GillSans,Gill Sans" font-size="20.0" fill="#000000" transform="matrix(1.00, 0.00, -0.00, -1.00, 57.0, 13.6)">Y</text><text xml:space="preserve" font-family="GillSans,Gill Sans" font-size="20.0" fill="#000000" transform="matrix(1.00, 0.00, -0.00, -1.00, 69.1, 13.6)">i</text><text xml:space="preserve" font-family="GillSans,Gill Sans" font-size="20.0" fill="#000000" transform="matrix(1.00, 0.00, -0.00, -1.00, 73.5, 13.6)">e</text><text xml:space="preserve" font-family="GillSans,Gill Sans" font-size="20.0" fill="#000000" transform="matrix(1.00, 0.00, -0.00, -1.00, 83.0, 13.6)">l</text><text xml:space="preserve" font-family="GillSans,Gill Sans" font-size="20.0" fill="#000000" transform="matrix(1.00, 0.00, -0.00, -1.00, 87.4, 13.6)">d</text><text xml:space="preserve" font-family="GillSans,Gill Sans" font-size="20.0" fill="#000000" transform="matrix(1.00, 0.00, -0.00, -1.00, 97.6, 13.6)">s</text><text xml:space="preserve" font-family="GillSans,Gill Sans" font-size="20.0" fill="#000000" transform="matrix(1.00, 0.00, -0.00, -1.00, 105.3, 13.6)"> </text><text xml:space="preserve" font-family="GillSans,Gill Sans" font-size="20.0" fill="#000000" transform="matrix(1.00, 0.00, -0.00, -1.00, 110.9, 13.6)">~</text><text xml:space="preserve" font-family="GillSans,Gill Sans" font-size="20.0" fill="#000000" transform="matrix(1.00, 0.00, -0.00, -1.00, 122.5, 13.6)"> </text><text xml:space="preserve" font-family="GillSans,Gill Sans" font-size="20.0" fill="#000000" transform="matrix(1.00, 0.00, -0.00, -1.00, 128.1, 13.6)">1</text><text xml:space="preserve" font-family="GillSans,Gill Sans" font-size="20.0" fill="#000000" transform="matrix(1.00, 0.00, -0.00, -1.00, 138.1, 13.6)"> </text><text xml:space="preserve" font-family="GillSans,Gill Sans" font-size="20.0" fill="#000000" transform="matrix(1.00, 0.00, -0.00, -1.00, 143.6, 13.6)">S</text><text xml:space="preserve" font-family="GillSans,Gill Sans" font-size="20.0" fill="#000000" transform="matrix(1.00, 0.00, -0.00, -1.00, 152.8, 13.6)">N</text><text xml:space="preserve" font-family="GillSans,Gill Sans" font-size="20.0" fill="#000000" transform="matrix(1.00, 0.00, -0.00, -1.00, 168.4, 13.6)">P</text><text xml:space="preserve" font-family="GillSans,Gill Sans" font-size="20.0" fill="#000000" transform="matrix(1.00, 0.00, -0.00, -1.00, 178.6, 13.6)"> </text><text xml:space="preserve" font-family="GillSans,Gill Sans" font-size="20.0" fill="#000000" transform="matrix(1.00, 0.00, -0.00, -1.00, 184.2, 13.6)">p</text><text xml:space="preserve" font-family="GillSans,Gill Sans" font-size="20.0" fill="#000000" transform="matrix(1.00, 0.00, -0.00, -1.00, 194.2, 13.6)">e</text><text xml:space="preserve" font-family="GillSans,Gill Sans" font-size="20.0" fill="#000000" transform="matrix(1.00, 0.00, -0.00, -1.00, 203.7, 13.6)">r</text><text xml:space="preserve" font-family="GillSans,Gill Sans" font-size="20.0" fill="#000000" transform="matrix(1.00, 0.00, -0.00, -1.00, 211.7, 13.6)"> </text><text xml:space="preserve" font-family="GillSans,Gill Sans" font-size="20.0" fill="#000000" transform="matrix(1.00, 0.00, -0.00, -1.00, 217.2, 13.6)">1</text><text xml:space="preserve" font-family="GillSans,Gill Sans" font-size="20.0" fill="#000000" transform="matrix(1.00, 0.00, -0.00, -1.00, 227.2, 13.6)">0</text><text xml:space="preserve" font-family="GillSans,Gill Sans" font-size="20.0" fill="#000000" transform="matrix(1.00, 0.00, -0.00, -1.00, 237.2, 13.6)">k</text><text xml:space="preserve" font-family="GillSans,Gill Sans" font-size="20.0" fill="#000000" transform="matrix(1.00, 0.00, -0.00, -1.00, 246.8, 13.6)">b</text></g></svg>