<?xml version="1.0" encoding="UTF-8" standalone="no"?><svg xmlns="http://www.w3.org/2000/svg" xmlns:xlink="http://www.w3.org/1999/xlink" clip-rule="evenodd" stroke-miterlimit="10" viewBox="0 0 1024 768"><desc>SVG generated by Keynote</desc><defs></defs><g transform="matrix(1.00, 0.00, -0.00, -1.00, 0.0, 768.0)"><path d="M 0.0 768.0 L 1024.0 768.0 L 1024.0 0.0 L 0.0 0.0 Z M 0.0 768.0 " fill="#FFFFFF"></path><g><clipPath id="clip0x600000eb7ee0"><path d="M 97.1 719.0 L 926.9 719.0 L 926.9 743.0 L 97.1 743.0 Z M 97.1 719.0 "></path></clipPath><g clip-path="url(#clip0x600000eb7ee0)"><text xml:space="preserve" font-family="GillSans,Gill Sans" font-size="24.0" fill="#000000" transform="matrix(1.00, 0.00, -0.00, -1.00, 416.3, 720.5)">R</text><text xml:space="preserve" font-family="GillSans,Gill Sans" font-size="24.0" fill="#000000" transform="matrix(1.00, 0.00, -0.00, -1.00, 430.8, 720.5)">i</text><text xml:space="preserve" font-family="GillSans,Gill Sans" font-size="24.0" fill="#000000" transform="matrix(1.00, 0.00, -0.00, -1.00, 436.1, 720.5)">c</text><text xml:space="preserve" font-family="GillSans,Gill Sans" font-size="24.0" fill="#000000" transform="matrix(1.00, 0.00, -0.00, -1.00, 446.6, 720.5)">e</text><text xml:space="preserve" font-family="GillSans,Gill Sans" font-size="24.0" fill="#000000" transform="matrix(1.00, 0.00, -0.00, -1.00, 458.1, 720.5)"> </text><text xml:space="preserve" font-family="GillSans,Gill Sans" font-size="24.0" fill="#000000" transform="matrix(1.00, 0.00, -0.00, -1.00, 464.7, 720.5)">D</text><text xml:space="preserve" font-family="GillSans,Gill Sans" font-size="24.0" fill="#000000" transform="matrix(1.00, 0.00, -0.00, -1.00, 482.7, 720.5)">o</text><text xml:space="preserve" font-family="GillSans,Gill Sans" font-size="24.0" fill="#000000" transform="matrix(1.00, 0.00, -0.00, -1.00, 496.0, 720.5)">m</text><text xml:space="preserve" font-family="GillSans,Gill Sans" font-size="24.0" fill="#000000" transform="matrix(1.00, 0.00, -0.00, -1.00, 514.5, 720.5)">e</text><text xml:space="preserve" font-family="GillSans,Gill Sans" font-size="24.0" fill="#000000" transform="matrix(1.00, 0.00, -0.00, -1.00, 526.0, 720.5)">s</text><text xml:space="preserve" font-family="GillSans,Gill Sans" font-size="24.0" fill="#000000" transform="matrix(1.00, 0.00, -0.00, -1.00, 535.2, 720.5)">t</text><text xml:space="preserve" font-family="GillSans,Gill Sans" font-size="24.0" fill="#000000" transform="matrix(1.00, 0.00, -0.00, -1.00, 543.2, 720.5)">i</text><text xml:space="preserve" font-family="GillSans,Gill Sans" font-size="24.0" fill="#000000" transform="matrix(1.00, 0.00, -0.00, -1.00, 548.5, 720.5)">c</text><text xml:space="preserve" font-family="GillSans,Gill Sans" font-size="24.0" fill="#000000" transform="matrix(1.00, 0.00, -0.00, -1.00, 559.0, 720.5)">a</text><text xml:space="preserve" font-family="GillSans,Gill Sans" font-size="24.0" fill="#000000" transform="matrix(1.00, 0.00, -0.00, -1.00, 569.2, 720.5)">t</text><text xml:space="preserve" font-family="GillSans,Gill Sans" font-size="24.0" fill="#000000" transform="matrix(1.00, 0.00, -0.00, -1.00, 577.2, 720.5)">i</text><text xml:space="preserve" font-family="GillSans,Gill Sans" font-size="24.0" fill="#000000" transform="matrix(1.00, 0.00, -0.00, -1.00, 582.5, 720.5)">o</text><text xml:space="preserve" font-family="GillSans,Gill Sans" font-size="24.0" fill="#000000" transform="matrix(1.00, 0.00, -0.00, -1.00, 595.7, 720.5)">n</text></g></g><image xlink:href="EDCF70CB97A4E7A807BD2BB3EBD0978A.png" width="526.00" height="648.00" transform="matrix(1.00, 0.00, -0.00, -1.00, 446.0, 698.0)"></image><text xml:space="preserve" font-family="GillSans,Gill Sans" font-size="12.0" fill="#000000" transform="matrix(1.00, 0.00, -0.00, -1.00, 835.1, 12.3)">K</text><text xml:space="preserve" font-family="GillSans,Gill Sans" font-size="12.0" fill="#000000" transform="matrix(1.00, 0.00, -0.00, -1.00, 842.3, 12.3)">o</text><text xml:space="preserve" font-family="GillSans,Gill Sans" font-size="12.0" fill="#000000" transform="matrix(1.00, 0.00, -0.00, -1.00, 848.8, 12.3)">v</text><text xml:space="preserve" font-family="GillSans,Gill Sans" font-size="12.0" fill="#000000" transform="matrix(1.00, 0.00, -0.00, -1.00, 854.0, 12.3)">a</text><text xml:space="preserve" font-family="GillSans,Gill Sans" font-size="12.0" fill="#000000" transform="matrix(1.00, 0.00, -0.00, -1.00, 859.2, 12.3)">k</text><text xml:space="preserve" font-family="GillSans,Gill Sans" font-size="12.0" fill="#000000" transform="matrix(1.00, 0.00, -0.00, -1.00, 864.9, 12.3)"> </text><text xml:space="preserve" font-family="GillSans,Gill Sans" font-size="12.0" fill="#000000" transform="matrix(1.00, 0.00, -0.00, -1.00, 868.2, 12.3)">e</text><text xml:space="preserve" font-family="GillSans,Gill Sans" font-size="12.0" fill="#000000" transform="matrix(1.00, 0.00, -0.00, -1.00, 874.0, 12.3)">t</text><text xml:space="preserve" font-family="GillSans,Gill Sans" font-size="12.0" fill="#000000" transform="matrix(1.00, 0.00, -0.00, -1.00, 878.0, 12.3)"> </text><text xml:space="preserve" font-family="GillSans,Gill Sans" font-size="12.0" fill="#000000" transform="matrix(1.00, 0.00, -0.00, -1.00, 881.3, 12.3)">a</text><text xml:space="preserve" font-family="GillSans,Gill Sans" font-size="12.0" fill="#000000" transform="matrix(1.00, 0.00, -0.00, -1.00, 886.4, 12.3)">l</text><text xml:space="preserve" font-family="GillSans,Gill Sans" font-size="12.0" fill="#000000" transform="matrix(1.00, 0.00, -0.00, -1.00, 889.1, 12.3)">,</text><text xml:space="preserve" font-family="GillSans,Gill Sans" font-size="12.0" fill="#000000" transform="matrix(1.00, 0.00, -0.00, -1.00, 890.5, 12.3)"> </text><text xml:space="preserve" font-family="GillSans,Gill Sans" font-size="12.0" fill="#000000" transform="matrix(1.00, 0.00, -0.00, -1.00, 892.3, 12.3)">T</text><text xml:space="preserve" font-family="GillSans,Gill Sans" font-size="12.0" fill="#000000" transform="matrix(1.00, 0.00, -0.00, -1.00, 898.1, 12.3)">r</text><text xml:space="preserve" font-family="GillSans,Gill Sans" font-size="12.0" fill="#000000" transform="matrix(1.00, 0.00, -0.00, -1.00, 902.6, 12.3)">e</text><text xml:space="preserve" font-family="GillSans,Gill Sans" font-size="12.0" fill="#000000" transform="matrix(1.00, 0.00, -0.00, -1.00, 908.3, 12.3)">n</text><text xml:space="preserve" font-family="GillSans,Gill Sans" font-size="12.0" fill="#000000" transform="matrix(1.00, 0.00, -0.00, -1.00, 914.3, 12.3)">d</text><text xml:space="preserve" font-family="GillSans,Gill Sans" font-size="12.0" fill="#000000" transform="matrix(1.00, 0.00, -0.00, -1.00, 920.5, 12.3)">s</text><text xml:space="preserve" font-family="GillSans,Gill Sans" font-size="12.0" fill="#000000" transform="matrix(1.00, 0.00, -0.00, -1.00, 925.1, 12.3)"> </text><text xml:space="preserve" font-family="GillSans,Gill Sans" font-size="12.0" fill="#000000" transform="matrix(1.00, 0.00, -0.00, -1.00, 928.4, 12.3)">i</text><text xml:space="preserve" font-family="GillSans,Gill Sans" font-size="12.0" fill="#000000" transform="matrix(1.00, 0.00, -0.00, -1.00, 931.0, 12.3)">n</text><text xml:space="preserve" font-family="GillSans,Gill Sans" font-size="12.0" fill="#000000" transform="matrix(1.00, 0.00, -0.00, -1.00, 937.0, 12.3)"> </text><text xml:space="preserve" font-family="GillSans,Gill Sans" font-size="12.0" fill="#000000" transform="matrix(1.00, 0.00, -0.00, -1.00, 940.4, 12.3)">G</text><text xml:space="preserve" font-family="GillSans,Gill Sans" font-size="12.0" fill="#000000" transform="matrix(1.00, 0.00, -0.00, -1.00, 949.3, 12.3)">e</text><text xml:space="preserve" font-family="GillSans,Gill Sans" font-size="12.0" fill="#000000" transform="matrix(1.00, 0.00, -0.00, -1.00, 955.0, 12.3)">n</text><text xml:space="preserve" font-family="GillSans,Gill Sans" font-size="12.0" fill="#000000" transform="matrix(1.00, 0.00, -0.00, -1.00, 961.0, 12.3)">e</text><text xml:space="preserve" font-family="GillSans,Gill Sans" font-size="12.0" fill="#000000" transform="matrix(1.00, 0.00, -0.00, -1.00, 966.8, 12.3)">t</text><text xml:space="preserve" font-family="GillSans,Gill Sans" font-size="12.0" fill="#000000" transform="matrix(1.00, 0.00, -0.00, -1.00, 970.7, 12.3)">i</text><text xml:space="preserve" font-family="GillSans,Gill Sans" font-size="12.0" fill="#000000" transform="matrix(1.00, 0.00, -0.00, -1.00, 973.4, 12.3)">c</text><text xml:space="preserve" font-family="GillSans,Gill Sans" font-size="12.0" fill="#000000" transform="matrix(1.00, 0.00, -0.00, -1.00, 978.6, 12.3)">s</text><text xml:space="preserve" font-family="GillSans,Gill Sans" font-size="12.0" fill="#000000" transform="matrix(1.00, 0.00, -0.00, -1.00, 983.3, 12.3)">,</text><text xml:space="preserve" font-family="GillSans,Gill Sans" font-size="12.0" fill="#000000" transform="matrix(1.00, 0.00, -0.00, -1.00, 984.7, 12.3)"> </text><text xml:space="preserve" font-family="GillSans,Gill Sans" font-size="12.0" fill="#000000" transform="matrix(1.00, 0.00, -0.00, -1.00, 988.0, 12.3)">2</text><text xml:space="preserve" font-family="GillSans,Gill Sans" font-size="12.0" fill="#000000" transform="matrix(1.00, 0.00, -0.00, -1.00, 994.0, 12.3)">0</text><text xml:space="preserve" font-family="GillSans,Gill Sans" font-size="12.0" fill="#000000" transform="matrix(1.00, 0.00, -0.00, -1.00, 1000.0, 12.3)">0</text><text xml:space="preserve" font-family="GillSans,Gill Sans" font-size="12.0" fill="#000000" transform="matrix(1.00, 0.00, -0.00, -1.00, 1006.0, 12.3)">7</text><text xml:space="preserve" font-family="GillSans,Gill Sans" font-size="42.0" fill="#000000" transform="matrix(1.00, 0.00, -0.00, -1.00, 128.4, 578.7)">R</text><text xml:space="preserve" font-family="GillSans,Gill Sans" font-size="42.0" fill="#000000" transform="matrix(1.00, 0.00, -0.00, -1.00, 153.7, 578.7)">i</text><text xml:space="preserve" font-family="GillSans,Gill Sans" font-size="42.0" fill="#000000" transform="matrix(1.00, 0.00, -0.00, -1.00, 162.9, 578.7)">c</text><text xml:space="preserve" font-family="GillSans,Gill Sans" font-size="42.0" fill="#000000" transform="matrix(1.00, 0.00, -0.00, -1.00, 181.3, 578.7)">e</text><text xml:space="preserve" font-family="GillSans,Gill Sans" font-size="42.0" fill="#000000" transform="matrix(1.00, 0.00, -0.00, -1.00, 201.5, 578.7)"> </text><text xml:space="preserve" font-family="GillSans,Gill Sans" font-size="42.0" fill="#000000" transform="matrix(1.00, 0.00, -0.00, -1.00, 213.1, 578.7)">p</text><text xml:space="preserve" font-family="GillSans,Gill Sans" font-size="42.0" fill="#000000" transform="matrix(1.00, 0.00, -0.00, -1.00, 234.1, 578.7)">r</text><text xml:space="preserve" font-family="GillSans,Gill Sans" font-size="42.0" fill="#000000" transform="matrix(1.00, 0.00, -0.00, -1.00, 249.7, 578.7)">o</text><text xml:space="preserve" font-family="GillSans,Gill Sans" font-size="42.0" fill="#000000" transform="matrix(1.00, 0.00, -0.00, -1.00, 272.9, 578.7)">g</text><text xml:space="preserve" font-family="GillSans,Gill Sans" font-size="42.0" fill="#000000" transform="matrix(1.00, 0.00, -0.00, -1.00, 290.8, 578.7)">e</text><text xml:space="preserve" font-family="GillSans,Gill Sans" font-size="42.0" fill="#000000" transform="matrix(1.00, 0.00, -0.00, -1.00, 310.9, 578.7)">n</text><text xml:space="preserve" font-family="GillSans,Gill Sans" font-size="42.0" fill="#000000" transform="matrix(1.00, 0.00, -0.00, -1.00, 331.9, 578.7)">i</text><text xml:space="preserve" font-family="GillSans,Gill Sans" font-size="42.0" fill="#000000" transform="matrix(1.00, 0.00, -0.00, -1.00, 341.1, 578.7)">t</text><text xml:space="preserve" font-family="GillSans,Gill Sans" font-size="42.0" fill="#000000" transform="matrix(1.00, 0.00, -0.00, -1.00, 355.1, 578.7)">o</text><text xml:space="preserve" font-family="GillSans,Gill Sans" font-size="42.0" fill="#000000" transform="matrix(1.00, 0.00, -0.00, -1.00, 378.3, 578.7)">r</text><text xml:space="preserve" font-family="GillSans,Gill Sans" font-size="42.0" fill="#000000" transform="matrix(1.00, 0.00, -0.00, -1.00, 396.6, 578.7)">:</text><text xml:space="preserve" font-family="GillSans-Italic,Gill Sans" font-style="italic" font-size="42.0" fill="#000000" transform="matrix(1.00, 0.00, -0.00, -1.00, 138.7, 530.7)">O</text><text xml:space="preserve" font-family="GillSans-Italic,Gill Sans" font-style="italic" font-size="42.0" fill="#000000" transform="matrix(1.00, 0.00, -0.00, -1.00, 166.2, 530.7)">r</text><text xml:space="preserve" font-family="GillSans-Italic,Gill Sans" font-style="italic" font-size="42.0" fill="#000000" transform="matrix(1.00, 0.00, -0.00, -1.00, 181.1, 530.7)">y</text><text xml:space="preserve" font-family="GillSans-Italic,Gill Sans" font-style="italic" font-size="42.0" fill="#000000" transform="matrix(1.00, 0.00, -0.00, -1.00, 196.8, 530.7)">z</text><text xml:space="preserve" font-family="GillSans-Italic,Gill Sans" font-style="italic" font-size="42.0" fill="#000000" transform="matrix(1.00, 0.00, -0.00, -1.00, 216.1, 530.7)">a</text><text xml:space="preserve" font-family="GillSans-Italic,Gill Sans" font-style="italic" font-size="42.0" fill="#000000" transform="matrix(1.00, 0.00, -0.00, -1.00, 235.8, 530.7)"> </text><text xml:space="preserve" font-family="GillSans-Italic,Gill Sans" font-style="italic" font-size="42.0" fill="#000000" transform="matrix(1.00, 0.00, -0.00, -1.00, 247.4, 530.7)">r</text><text xml:space="preserve" font-family="GillSans-Italic,Gill Sans" font-style="italic" font-size="42.0" fill="#000000" transform="matrix(1.00, 0.00, -0.00, -1.00, 260.6, 530.7)">u</text><text xml:space="preserve" font-family="GillSans-Italic,Gill Sans" font-style="italic" font-size="42.0" fill="#000000" transform="matrix(1.00, 0.00, -0.00, -1.00, 280.3, 530.7)">ï¬</text><text xml:space="preserve" font-family="GillSans-Italic,Gill Sans" font-style="italic" font-size="42.0" fill="#000000" transform="matrix(1.00, 0.00, -0.00, -1.00, 300.4, 530.7)">p</text><text xml:space="preserve" font-family="GillSans-Italic,Gill Sans" font-style="italic" font-size="42.0" fill="#000000" transform="matrix(1.00, 0.00, -0.00, -1.00, 321.0, 530.7)">o</text><text xml:space="preserve" font-family="GillSans-Italic,Gill Sans" font-style="italic" font-size="42.0" fill="#000000" transform="matrix(1.00, 0.00, -0.00, -1.00, 339.4, 530.7)">g</text><text xml:space="preserve" font-family="GillSans-Italic,Gill Sans" font-style="italic" font-size="42.0" fill="#000000" transform="matrix(1.00, 0.00, -0.00, -1.00, 356.9, 530.7)">o</text><text xml:space="preserve" font-family="GillSans-Italic,Gill Sans" font-style="italic" font-size="42.0" fill="#000000" transform="matrix(1.00, 0.00, -0.00, -1.00, 375.8, 530.7)">n</text><text xml:space="preserve" font-family="GillSans,Gill Sans" font-size="42.0" fill="#000000" transform="matrix(1.00, 0.00, -0.00, -1.00, 109.8, 248.7)">D</text><text xml:space="preserve" font-family="GillSans,Gill Sans" font-size="42.0" fill="#000000" transform="matrix(1.00, 0.00, -0.00, -1.00, 141.3, 248.7)">o</text><text xml:space="preserve" font-family="GillSans,Gill Sans" font-size="42.0" fill="#000000" transform="matrix(1.00, 0.00, -0.00, -1.00, 164.5, 248.7)">m</text><text xml:space="preserve" font-family="GillSans,Gill Sans" font-size="42.0" fill="#000000" transform="matrix(1.00, 0.00, -0.00, -1.00, 196.9, 248.7)">e</text><text xml:space="preserve" font-family="GillSans,Gill Sans" font-size="42.0" fill="#000000" transform="matrix(1.00, 0.00, -0.00, -1.00, 217.0, 248.7)">s</text><text xml:space="preserve" font-family="GillSans,Gill Sans" font-size="42.0" fill="#000000" transform="matrix(1.00, 0.00, -0.00, -1.00, 233.1, 248.7)">t</text><text xml:space="preserve" font-family="GillSans,Gill Sans" font-size="42.0" fill="#000000" transform="matrix(1.00, 0.00, -0.00, -1.00, 247.1, 248.7)">i</text><text xml:space="preserve" font-family="GillSans,Gill Sans" font-size="42.0" fill="#000000" transform="matrix(1.00, 0.00, -0.00, -1.00, 256.3, 248.7)">c</text><text xml:space="preserve" font-family="GillSans,Gill Sans" font-size="42.0" fill="#000000" transform="matrix(1.00, 0.00, -0.00, -1.00, 274.7, 248.7)">a</text><text xml:space="preserve" font-family="GillSans,Gill Sans" font-size="42.0" fill="#000000" transform="matrix(1.00, 0.00, -0.00, -1.00, 292.6, 248.7)">t</text><text xml:space="preserve" font-family="GillSans,Gill Sans" font-size="42.0" fill="#000000" transform="matrix(1.00, 0.00, -0.00, -1.00, 306.6, 248.7)">e</text><text xml:space="preserve" font-family="GillSans,Gill Sans" font-size="42.0" fill="#000000" transform="matrix(1.00, 0.00, -0.00, -1.00, 326.7, 248.7)">d</text><text xml:space="preserve" font-family="GillSans,Gill Sans" font-size="42.0" fill="#000000" transform="matrix(1.00, 0.00, -0.00, -1.00, 348.1, 248.7)"> </text><text xml:space="preserve" font-family="GillSans,Gill Sans" font-size="42.0" fill="#000000" transform="matrix(1.00, 0.00, -0.00, -1.00, 359.8, 248.7)">r</text><text xml:space="preserve" font-family="GillSans,Gill Sans" font-size="42.0" fill="#000000" transform="matrix(1.00, 0.00, -0.00, -1.00, 376.4, 248.7)">i</text><text xml:space="preserve" font-family="GillSans,Gill Sans" font-size="42.0" fill="#000000" transform="matrix(1.00, 0.00, -0.00, -1.00, 385.7, 248.7)">c</text><text xml:space="preserve" font-family="GillSans,Gill Sans" font-size="42.0" fill="#000000" transform="matrix(1.00, 0.00, -0.00, -1.00, 404.0, 248.7)">e</text><text xml:space="preserve" font-family="GillSans-Italic,Gill Sans" font-style="italic" font-size="42.0" fill="#000000" transform="matrix(1.00, 0.00, -0.00, -1.00, 167.8, 200.7)">O</text><text xml:space="preserve" font-family="GillSans-Italic,Gill Sans" font-style="italic" font-size="42.0" fill="#000000" transform="matrix(1.00, 0.00, -0.00, -1.00, 195.3, 200.7)">r</text><text xml:space="preserve" font-family="GillSans-Italic,Gill Sans" font-style="italic" font-size="42.0" fill="#000000" transform="matrix(1.00, 0.00, -0.00, -1.00, 210.1, 200.7)">y</text><text xml:space="preserve" font-family="GillSans-Italic,Gill Sans" font-style="italic" font-size="42.0" fill="#000000" transform="matrix(1.00, 0.00, -0.00, -1.00, 225.9, 200.7)">z</text><text xml:space="preserve" font-family="GillSans-Italic,Gill Sans" font-style="italic" font-size="42.0" fill="#000000" transform="matrix(1.00, 0.00, -0.00, -1.00, 245.1, 200.7)">a</text><text xml:space="preserve" font-family="GillSans-Italic,Gill Sans" font-style="italic" font-size="42.0" fill="#000000" transform="matrix(1.00, 0.00, -0.00, -1.00, 264.8, 200.7)"> </text><text xml:space="preserve" font-family="GillSans-Italic,Gill Sans" font-style="italic" font-size="42.0" fill="#000000" transform="matrix(1.00, 0.00, -0.00, -1.00, 276.5, 200.7)">s</text><text xml:space="preserve" font-family="GillSans-Italic,Gill Sans" font-style="italic" font-size="42.0" fill="#000000" transform="matrix(1.00, 0.00, -0.00, -1.00, 291.4, 200.7)">a</text><text xml:space="preserve" font-family="GillSans-Italic,Gill Sans" font-style="italic" font-size="42.0" fill="#000000" transform="matrix(1.00, 0.00, -0.00, -1.00, 311.1, 200.7)">t</text><text xml:space="preserve" font-family="GillSans-Italic,Gill Sans" font-style="italic" font-size="42.0" fill="#000000" transform="matrix(1.00, 0.00, -0.00, -1.00, 322.9, 200.7)">i</text><text xml:space="preserve" font-family="GillSans-Italic,Gill Sans" font-style="italic" font-size="42.0" fill="#000000" transform="matrix(1.00, 0.00, -0.00, -1.00, 330.8, 200.7)">v</text><text xml:space="preserve" font-family="GillSans-Italic,Gill Sans" font-style="italic" font-size="42.0" fill="#000000" transform="matrix(1.00, 0.00, -0.00, -1.00, 346.5, 200.7)">a</text></g></svg>