<?xml version="1.0" encoding="UTF-8" standalone="no"?><svg xmlns="http://www.w3.org/2000/svg" xmlns:xlink="http://www.w3.org/1999/xlink" clip-rule="evenodd" stroke-miterlimit="10" viewBox="0 0 155 48"><desc>SVG generated by Keynote</desc><defs></defs><g transform="matrix(1.00, 0.00, -0.00, -1.00, 0.0, 48.0)"><text xml:space="preserve" font-family="GillSans,Gill Sans" font-size="41.0" fill="#000000" transform="matrix(1.00, 0.00, -0.00, -1.00, 0.0, 10.0)">•</text><text xml:space="preserve" font-family="GillSans,Gill Sans" font-size="24.0" fill="#000000" transform="matrix(1.00, 0.00, -0.00, -1.00, 22.0, 15.5)">(</text><text xml:space="preserve" font-family="GillSans,Gill Sans" font-size="24.0" fill="#000000" transform="matrix(1.00, 0.00, -0.00, -1.00, 29.8, 15.5)">3</text><text xml:space="preserve" font-family="GillSans,Gill Sans" font-size="24.0" fill="#000000" transform="matrix(1.00, 0.00, -0.00, -1.00, 41.8, 15.5)">D</text><text xml:space="preserve" font-family="GillSans,Gill Sans" font-size="24.0" fill="#000000" transform="matrix(1.00, 0.00, -0.00, -1.00, 59.8, 15.5)"> </text><text xml:space="preserve" font-family="GillSans,Gill Sans" font-size="24.0" fill="#000000" transform="matrix(1.00, 0.00, -0.00, -1.00, 66.4, 15.5)">e</text><text xml:space="preserve" font-family="GillSans,Gill Sans" font-size="24.0" fill="#000000" transform="matrix(1.00, 0.00, -0.00, -1.00, 77.9, 15.5)">x</text><text xml:space="preserve" font-family="GillSans,Gill Sans" font-size="24.0" fill="#000000" transform="matrix(1.00, 0.00, -0.00, -1.00, 89.9, 15.5)">a</text><text xml:space="preserve" font-family="GillSans,Gill Sans" font-size="24.0" fill="#000000" transform="matrix(1.00, 0.00, -0.00, -1.00, 100.2, 15.5)">m</text><text xml:space="preserve" font-family="GillSans,Gill Sans" font-size="24.0" fill="#000000" transform="matrix(1.00, 0.00, -0.00, -1.00, 118.7, 15.5)">p</text><text xml:space="preserve" font-family="GillSans,Gill Sans" font-size="24.0" fill="#000000" transform="matrix(1.00, 0.00, -0.00, -1.00, 130.7, 15.5)">l</text><text xml:space="preserve" font-family="GillSans,Gill Sans" font-size="24.0" fill="#000000" transform="matrix(1.00, 0.00, -0.00, -1.00, 135.9, 15.5)">e</text><text xml:space="preserve" font-family="GillSans,Gill Sans" font-size="24.0" fill="#000000" transform="matrix(1.00, 0.00, -0.00, -1.00, 147.4, 15.5)">)</text></g></svg>