<?xml version="1.0" encoding="UTF-8" standalone="no"?><svg xmlns="http://www.w3.org/2000/svg" xmlns:xlink="http://www.w3.org/1999/xlink" clip-rule="evenodd" stroke-miterlimit="10" viewBox="0 0 715 48"><desc>SVG generated by Keynote</desc><defs></defs><g transform="matrix(1.00, 0.00, -0.00, -1.00, 0.0, 48.0)"><text xml:space="preserve" font-family="GillSans,Gill Sans" font-size="41.0" fill="#000000" transform="matrix(1.00, 0.00, -0.00, -1.00, 0.0, 10.0)">•</text><text xml:space="preserve" font-family="GillSans,Gill Sans" font-size="24.0" fill="#000000" transform="matrix(1.00, 0.00, -0.00, -1.00, 22.0, 15.5)">S</text><text xml:space="preserve" font-family="GillSans,Gill Sans" font-size="24.0" fill="#000000" transform="matrix(1.00, 0.00, -0.00, -1.00, 33.0, 15.5)">N</text><text xml:space="preserve" font-family="GillSans,Gill Sans" font-size="24.0" fill="#000000" transform="matrix(1.00, 0.00, -0.00, -1.00, 51.7, 15.5)">P</text><text xml:space="preserve" font-family="GillSans,Gill Sans" font-size="24.0" fill="#000000" transform="matrix(1.00, 0.00, -0.00, -1.00, 64.0, 15.5)"> </text><text xml:space="preserve" font-family="GillSans,Gill Sans" font-size="24.0" fill="#000000" transform="matrix(1.00, 0.00, -0.00, -1.00, 70.6, 15.5)">D</text><text xml:space="preserve" font-family="GillSans,Gill Sans" font-size="24.0" fill="#000000" transform="matrix(1.00, 0.00, -0.00, -1.00, 88.6, 15.5)">a</text><text xml:space="preserve" font-family="GillSans,Gill Sans" font-size="24.0" fill="#000000" transform="matrix(1.00, 0.00, -0.00, -1.00, 98.9, 15.5)">t</text><text xml:space="preserve" font-family="GillSans,Gill Sans" font-size="24.0" fill="#000000" transform="matrix(1.00, 0.00, -0.00, -1.00, 106.8, 15.5)">a</text><text xml:space="preserve" font-family="GillSans,Gill Sans" font-size="24.0" fill="#000000" transform="matrix(1.00, 0.00, -0.00, -1.00, 117.1, 15.5)"> </text><text xml:space="preserve" font-family="GillSans,Gill Sans" font-size="24.0" fill="#000000" transform="matrix(1.00, 0.00, -0.00, -1.00, 123.7, 15.5)">i</text><text xml:space="preserve" font-family="GillSans,Gill Sans" font-size="24.0" fill="#000000" transform="matrix(1.00, 0.00, -0.00, -1.00, 129.0, 15.5)">s</text><text xml:space="preserve" font-family="GillSans,Gill Sans" font-size="24.0" fill="#000000" transform="matrix(1.00, 0.00, -0.00, -1.00, 138.2, 15.5)"> </text><text xml:space="preserve" font-family="GillSans,Gill Sans" font-size="24.0" fill="#000000" transform="matrix(1.00, 0.00, -0.00, -1.00, 144.9, 15.5)">m</text><text xml:space="preserve" font-family="GillSans,Gill Sans" font-size="24.0" fill="#000000" transform="matrix(1.00, 0.00, -0.00, -1.00, 163.2, 15.5)">u</text><text xml:space="preserve" font-family="GillSans,Gill Sans" font-size="24.0" fill="#000000" transform="matrix(1.00, 0.00, -0.00, -1.00, 175.2, 15.5)">l</text><text xml:space="preserve" font-family="GillSans,Gill Sans" font-size="24.0" fill="#000000" transform="matrix(1.00, 0.00, -0.00, -1.00, 180.4, 15.5)">t</text><text xml:space="preserve" font-family="GillSans,Gill Sans" font-size="24.0" fill="#000000" transform="matrix(1.00, 0.00, -0.00, -1.00, 188.4, 15.5)">i</text><text xml:space="preserve" font-family="GillSans,Gill Sans" font-size="24.0" fill="#000000" transform="matrix(1.00, 0.00, -0.00, -1.00, 193.7, 15.5)">-</text><text xml:space="preserve" font-family="GillSans,Gill Sans" font-size="24.0" fill="#000000" transform="matrix(1.00, 0.00, -0.00, -1.00, 201.5, 15.5)">d</text><text xml:space="preserve" font-family="GillSans,Gill Sans" font-size="24.0" fill="#000000" transform="matrix(1.00, 0.00, -0.00, -1.00, 213.7, 15.5)">i</text><text xml:space="preserve" font-family="GillSans,Gill Sans" font-size="24.0" fill="#000000" transform="matrix(1.00, 0.00, -0.00, -1.00, 219.0, 15.5)">m</text><text xml:space="preserve" font-family="GillSans,Gill Sans" font-size="24.0" fill="#000000" transform="matrix(1.00, 0.00, -0.00, -1.00, 237.5, 15.5)">e</text><text xml:space="preserve" font-family="GillSans,Gill Sans" font-size="24.0" fill="#000000" transform="matrix(1.00, 0.00, -0.00, -1.00, 249.0, 15.5)">n</text><text xml:space="preserve" font-family="GillSans,Gill Sans" font-size="24.0" fill="#000000" transform="matrix(1.00, 0.00, -0.00, -1.00, 261.0, 15.5)">s</text><text xml:space="preserve" font-family="GillSans,Gill Sans" font-size="24.0" fill="#000000" transform="matrix(1.00, 0.00, -0.00, -1.00, 270.2, 15.5)">i</text><text xml:space="preserve" font-family="GillSans,Gill Sans" font-size="24.0" fill="#000000" transform="matrix(1.00, 0.00, -0.00, -1.00, 275.5, 15.5)">o</text><text xml:space="preserve" font-family="GillSans,Gill Sans" font-size="24.0" fill="#000000" transform="matrix(1.00, 0.00, -0.00, -1.00, 288.7, 15.5)">n</text><text xml:space="preserve" font-family="GillSans,Gill Sans" font-size="24.0" fill="#000000" transform="matrix(1.00, 0.00, -0.00, -1.00, 300.7, 15.5)">a</text><text xml:space="preserve" font-family="GillSans,Gill Sans" font-size="24.0" fill="#000000" transform="matrix(1.00, 0.00, -0.00, -1.00, 310.9, 15.5)">l</text><text xml:space="preserve" font-family="GillSans,Gill Sans" font-size="24.0" fill="#000000" transform="matrix(1.00, 0.00, -0.00, -1.00, 316.2, 15.5)">;</text><text xml:space="preserve" font-family="GillSans,Gill Sans" font-size="24.0" fill="#000000" transform="matrix(1.00, 0.00, -0.00, -1.00, 319.3, 15.5)"> </text><text xml:space="preserve" font-family="GillSans,Gill Sans" font-size="24.0" fill="#000000" transform="matrix(1.00, 0.00, -0.00, -1.00, 326.0, 15.5)">e</text><text xml:space="preserve" font-family="GillSans,Gill Sans" font-size="24.0" fill="#000000" transform="matrix(1.00, 0.00, -0.00, -1.00, 337.5, 15.5)">a</text><text xml:space="preserve" font-family="GillSans,Gill Sans" font-size="24.0" fill="#000000" transform="matrix(1.00, 0.00, -0.00, -1.00, 347.7, 15.5)">c</text><text xml:space="preserve" font-family="GillSans,Gill Sans" font-size="24.0" fill="#000000" transform="matrix(1.00, 0.00, -0.00, -1.00, 358.2, 15.5)">h</text><text xml:space="preserve" font-family="GillSans,Gill Sans" font-size="24.0" fill="#000000" transform="matrix(1.00, 0.00, -0.00, -1.00, 370.2, 15.5)"> </text><text xml:space="preserve" font-family="GillSans,Gill Sans" font-size="24.0" fill="#000000" transform="matrix(1.00, 0.00, -0.00, -1.00, 376.9, 15.5)">S</text><text xml:space="preserve" font-family="GillSans,Gill Sans" font-size="24.0" fill="#000000" transform="matrix(1.00, 0.00, -0.00, -1.00, 387.9, 15.5)">N</text><text xml:space="preserve" font-family="GillSans,Gill Sans" font-size="24.0" fill="#000000" transform="matrix(1.00, 0.00, -0.00, -1.00, 406.6, 15.5)">P</text><text xml:space="preserve" font-family="GillSans,Gill Sans" font-size="24.0" fill="#000000" transform="matrix(1.00, 0.00, -0.00, -1.00, 418.8, 15.5)"> </text><text xml:space="preserve" font-family="GillSans,Gill Sans" font-size="24.0" fill="#000000" transform="matrix(1.00, 0.00, -0.00, -1.00, 425.5, 15.5)">s</text><text xml:space="preserve" font-family="GillSans,Gill Sans" font-size="24.0" fill="#000000" transform="matrix(1.00, 0.00, -0.00, -1.00, 434.7, 15.5)">i</text><text xml:space="preserve" font-family="GillSans,Gill Sans" font-size="24.0" fill="#000000" transform="matrix(1.00, 0.00, -0.00, -1.00, 440.0, 15.5)">t</text><text xml:space="preserve" font-family="GillSans,Gill Sans" font-size="24.0" fill="#000000" transform="matrix(1.00, 0.00, -0.00, -1.00, 448.0, 15.5)">e</text><text xml:space="preserve" font-family="GillSans,Gill Sans" font-size="24.0" fill="#000000" transform="matrix(1.00, 0.00, -0.00, -1.00, 459.5, 15.5)"> </text><text xml:space="preserve" font-family="GillSans,Gill Sans" font-size="24.0" fill="#000000" transform="matrix(1.00, 0.00, -0.00, -1.00, 466.2, 15.5)">c</text><text xml:space="preserve" font-family="GillSans,Gill Sans" font-size="24.0" fill="#000000" transform="matrix(1.00, 0.00, -0.00, -1.00, 476.7, 15.5)">a</text><text xml:space="preserve" font-family="GillSans,Gill Sans" font-size="24.0" fill="#000000" transform="matrix(1.00, 0.00, -0.00, -1.00, 486.9, 15.5)">n</text><text xml:space="preserve" font-family="GillSans,Gill Sans" font-size="24.0" fill="#000000" transform="matrix(1.00, 0.00, -0.00, -1.00, 498.9, 15.5)"> </text><text xml:space="preserve" font-family="GillSans,Gill Sans" font-size="24.0" fill="#000000" transform="matrix(1.00, 0.00, -0.00, -1.00, 505.6, 15.5)">b</text><text xml:space="preserve" font-family="GillSans,Gill Sans" font-size="24.0" fill="#000000" transform="matrix(1.00, 0.00, -0.00, -1.00, 517.6, 15.5)">e</text><text xml:space="preserve" font-family="GillSans,Gill Sans" font-size="24.0" fill="#000000" transform="matrix(1.00, 0.00, -0.00, -1.00, 529.1, 15.5)"> </text><text xml:space="preserve" font-family="GillSans,Gill Sans" font-size="24.0" fill="#000000" transform="matrix(1.00, 0.00, -0.00, -1.00, 535.8, 15.5)">c</text><text xml:space="preserve" font-family="GillSans,Gill Sans" font-size="24.0" fill="#000000" transform="matrix(1.00, 0.00, -0.00, -1.00, 546.3, 15.5)">o</text><text xml:space="preserve" font-family="GillSans,Gill Sans" font-size="24.0" fill="#000000" transform="matrix(1.00, 0.00, -0.00, -1.00, 559.5, 15.5)">n</text><text xml:space="preserve" font-family="GillSans,Gill Sans" font-size="24.0" fill="#000000" transform="matrix(1.00, 0.00, -0.00, -1.00, 571.5, 15.5)">s</text><text xml:space="preserve" font-family="GillSans,Gill Sans" font-size="24.0" fill="#000000" transform="matrix(1.00, 0.00, -0.00, -1.00, 580.7, 15.5)">i</text><text xml:space="preserve" font-family="GillSans,Gill Sans" font-size="24.0" fill="#000000" transform="matrix(1.00, 0.00, -0.00, -1.00, 586.0, 15.5)">d</text><text xml:space="preserve" font-family="GillSans,Gill Sans" font-size="24.0" fill="#000000" transform="matrix(1.00, 0.00, -0.00, -1.00, 598.2, 15.5)">e</text><text xml:space="preserve" font-family="GillSans,Gill Sans" font-size="24.0" fill="#000000" transform="matrix(1.00, 0.00, -0.00, -1.00, 609.7, 15.5)">r</text><text xml:space="preserve" font-family="GillSans,Gill Sans" font-size="24.0" fill="#000000" transform="matrix(1.00, 0.00, -0.00, -1.00, 618.7, 15.5)">e</text><text xml:space="preserve" font-family="GillSans,Gill Sans" font-size="24.0" fill="#000000" transform="matrix(1.00, 0.00, -0.00, -1.00, 630.2, 15.5)">d</text><text xml:space="preserve" font-family="GillSans,Gill Sans" font-size="24.0" fill="#000000" transform="matrix(1.00, 0.00, -0.00, -1.00, 642.5, 15.5)"> </text><text xml:space="preserve" font-family="GillSans,Gill Sans" font-size="24.0" fill="#000000" transform="matrix(1.00, 0.00, -0.00, -1.00, 649.1, 15.5)">a</text><text xml:space="preserve" font-family="GillSans,Gill Sans" font-size="24.0" fill="#000000" transform="matrix(1.00, 0.00, -0.00, -1.00, 659.4, 15.5)">n</text><text xml:space="preserve" font-family="GillSans,Gill Sans" font-size="24.0" fill="#000000" transform="matrix(1.00, 0.00, -0.00, -1.00, 671.4, 15.5)"> </text><text xml:space="preserve" font-family="GillSans,Gill Sans" font-size="24.0" fill="#000000" transform="matrix(1.00, 0.00, -0.00, -1.00, 678.0, 15.5)">a</text><text xml:space="preserve" font-family="GillSans,Gill Sans" font-size="24.0" fill="#000000" transform="matrix(1.00, 0.00, -0.00, -1.00, 688.3, 15.5)">x</text><text xml:space="preserve" font-family="GillSans,Gill Sans" font-size="24.0" fill="#000000" transform="matrix(1.00, 0.00, -0.00, -1.00, 700.3, 15.5)">i</text><text xml:space="preserve" font-family="GillSans,Gill Sans" font-size="24.0" fill="#000000" transform="matrix(1.00, 0.00, -0.00, -1.00, 705.5, 15.5)">s</text></g></svg>