<?xml version="1.0" encoding="UTF-8" standalone="no"?><svg xmlns="http://www.w3.org/2000/svg" xmlns:xlink="http://www.w3.org/1999/xlink" clip-rule="evenodd" stroke-miterlimit="10" viewBox="0 0 1024 768"><desc>SVG generated by Keynote</desc><defs></defs><g transform="matrix(1.00, 0.00, -0.00, -1.00, 0.0, 768.0)"><path d="M 0.0 768.0 L 1024.0 768.0 L 1024.0 0.0 L 0.0 0.0 Z M 0.0 768.0 " fill="#FFFFFF"></path><image xlink:href="3C39F474D03D93447C3E98543AEC69F3.png" width="600.00" height="600.00" transform="matrix(0.77, 0.00, -0.00, -0.77, 564.0, 460.0)"></image><text xml:space="preserve" font-family="GillSans,Gill Sans" font-size="24.0" fill="#000000" transform="matrix(1.00, 0.00, -0.00, -1.00, 282.0, 728.5)">U</text><text xml:space="preserve" font-family="GillSans,Gill Sans" font-size="24.0" fill="#000000" transform="matrix(1.00, 0.00, -0.00, -1.00, 299.0, 728.5)">s</text><text xml:space="preserve" font-family="GillSans,Gill Sans" font-size="24.0" fill="#000000" transform="matrix(1.00, 0.00, -0.00, -1.00, 308.2, 728.5)">i</text><text xml:space="preserve" font-family="GillSans,Gill Sans" font-size="24.0" fill="#000000" transform="matrix(1.00, 0.00, -0.00, -1.00, 313.5, 728.5)">n</text><text xml:space="preserve" font-family="GillSans,Gill Sans" font-size="24.0" fill="#000000" transform="matrix(1.00, 0.00, -0.00, -1.00, 325.5, 728.5)">g</text><text xml:space="preserve" font-family="GillSans,Gill Sans" font-size="24.0" fill="#000000" transform="matrix(1.00, 0.00, -0.00, -1.00, 335.7, 728.5)"> </text><text xml:space="preserve" font-family="GillSans,Gill Sans" font-size="24.0" fill="#000000" transform="matrix(1.00, 0.00, -0.00, -1.00, 342.4, 728.5)">n</text><text xml:space="preserve" font-family="GillSans,Gill Sans" font-size="24.0" fill="#000000" transform="matrix(1.00, 0.00, -0.00, -1.00, 354.4, 728.5)">a</text><text xml:space="preserve" font-family="GillSans,Gill Sans" font-size="24.0" fill="#000000" transform="matrix(1.00, 0.00, -0.00, -1.00, 364.6, 728.5)">t</text><text xml:space="preserve" font-family="GillSans,Gill Sans" font-size="24.0" fill="#000000" transform="matrix(1.00, 0.00, -0.00, -1.00, 372.6, 728.5)">u</text><text xml:space="preserve" font-family="GillSans,Gill Sans" font-size="24.0" fill="#000000" transform="matrix(1.00, 0.00, -0.00, -1.00, 384.6, 728.5)">r</text><text xml:space="preserve" font-family="GillSans,Gill Sans" font-size="24.0" fill="#000000" transform="matrix(1.00, 0.00, -0.00, -1.00, 394.1, 728.5)">a</text><text xml:space="preserve" font-family="GillSans,Gill Sans" font-size="24.0" fill="#000000" transform="matrix(1.00, 0.00, -0.00, -1.00, 404.4, 728.5)">l</text><text xml:space="preserve" font-family="GillSans,Gill Sans" font-size="24.0" fill="#000000" transform="matrix(1.00, 0.00, -0.00, -1.00, 409.6, 728.5)"> </text><text xml:space="preserve" font-family="GillSans,Gill Sans" font-size="24.0" fill="#000000" transform="matrix(1.00, 0.00, -0.00, -1.00, 416.3, 728.5)">v</text><text xml:space="preserve" font-family="GillSans,Gill Sans" font-size="24.0" fill="#000000" transform="matrix(1.00, 0.00, -0.00, -1.00, 426.8, 728.5)">a</text><text xml:space="preserve" font-family="GillSans,Gill Sans" font-size="24.0" fill="#000000" transform="matrix(1.00, 0.00, -0.00, -1.00, 437.0, 728.5)">r</text><text xml:space="preserve" font-family="GillSans,Gill Sans" font-size="24.0" fill="#000000" transform="matrix(1.00, 0.00, -0.00, -1.00, 446.5, 728.5)">i</text><text xml:space="preserve" font-family="GillSans,Gill Sans" font-size="24.0" fill="#000000" transform="matrix(1.00, 0.00, -0.00, -1.00, 451.8, 728.5)">a</text><text xml:space="preserve" font-family="GillSans,Gill Sans" font-size="24.0" fill="#000000" transform="matrix(1.00, 0.00, -0.00, -1.00, 462.0, 728.5)">t</text><text xml:space="preserve" font-family="GillSans,Gill Sans" font-size="24.0" fill="#000000" transform="matrix(1.00, 0.00, -0.00, -1.00, 470.0, 728.5)">i</text><text xml:space="preserve" font-family="GillSans,Gill Sans" font-size="24.0" fill="#000000" transform="matrix(1.00, 0.00, -0.00, -1.00, 475.3, 728.5)">o</text><text xml:space="preserve" font-family="GillSans,Gill Sans" font-size="24.0" fill="#000000" transform="matrix(1.00, 0.00, -0.00, -1.00, 488.5, 728.5)">n</text><text xml:space="preserve" font-family="GillSans,Gill Sans" font-size="24.0" fill="#000000" transform="matrix(1.00, 0.00, -0.00, -1.00, 500.5, 728.5)"> </text><text xml:space="preserve" font-family="GillSans,Gill Sans" font-size="24.0" fill="#000000" transform="matrix(1.00, 0.00, -0.00, -1.00, 507.2, 728.5)">f</text><text xml:space="preserve" font-family="GillSans,Gill Sans" font-size="24.0" fill="#000000" transform="matrix(1.00, 0.00, -0.00, -1.00, 513.0, 728.5)">o</text><text xml:space="preserve" font-family="GillSans,Gill Sans" font-size="24.0" fill="#000000" transform="matrix(1.00, 0.00, -0.00, -1.00, 526.2, 728.5)">r</text><text xml:space="preserve" font-family="GillSans,Gill Sans" font-size="24.0" fill="#000000" transform="matrix(1.00, 0.00, -0.00, -1.00, 535.7, 728.5)"> </text><text xml:space="preserve" font-family="GillSans,Gill Sans" font-size="24.0" fill="#000000" transform="matrix(1.00, 0.00, -0.00, -1.00, 542.4, 728.5)">r</text><text xml:space="preserve" font-family="GillSans,Gill Sans" font-size="24.0" fill="#000000" transform="matrix(1.00, 0.00, -0.00, -1.00, 551.9, 728.5)">i</text><text xml:space="preserve" font-family="GillSans,Gill Sans" font-size="24.0" fill="#000000" transform="matrix(1.00, 0.00, -0.00, -1.00, 557.1, 728.5)">c</text><text xml:space="preserve" font-family="GillSans,Gill Sans" font-size="24.0" fill="#000000" transform="matrix(1.00, 0.00, -0.00, -1.00, 567.7, 728.5)">e</text><text xml:space="preserve" font-family="GillSans,Gill Sans" font-size="24.0" fill="#000000" transform="matrix(1.00, 0.00, -0.00, -1.00, 579.2, 728.5)"> </text><text xml:space="preserve" font-family="GillSans,Gill Sans" font-size="24.0" fill="#000000" transform="matrix(1.00, 0.00, -0.00, -1.00, 585.8, 728.5)">i</text><text xml:space="preserve" font-family="GillSans,Gill Sans" font-size="24.0" fill="#000000" transform="matrix(1.00, 0.00, -0.00, -1.00, 591.1, 728.5)">m</text><text xml:space="preserve" font-family="GillSans,Gill Sans" font-size="24.0" fill="#000000" transform="matrix(1.00, 0.00, -0.00, -1.00, 609.6, 728.5)">p</text><text xml:space="preserve" font-family="GillSans,Gill Sans" font-size="24.0" fill="#000000" transform="matrix(1.00, 0.00, -0.00, -1.00, 621.6, 728.5)">r</text><text xml:space="preserve" font-family="GillSans,Gill Sans" font-size="24.0" fill="#000000" transform="matrix(1.00, 0.00, -0.00, -1.00, 630.5, 728.5)">o</text><text xml:space="preserve" font-family="GillSans,Gill Sans" font-size="24.0" fill="#000000" transform="matrix(1.00, 0.00, -0.00, -1.00, 643.5, 728.5)">v</text><text xml:space="preserve" font-family="GillSans,Gill Sans" font-size="24.0" fill="#000000" transform="matrix(1.00, 0.00, -0.00, -1.00, 653.5, 728.5)">e</text><text xml:space="preserve" font-family="GillSans,Gill Sans" font-size="24.0" fill="#000000" transform="matrix(1.00, 0.00, -0.00, -1.00, 665.0, 728.5)">m</text><text xml:space="preserve" font-family="GillSans,Gill Sans" font-size="24.0" fill="#000000" transform="matrix(1.00, 0.00, -0.00, -1.00, 683.5, 728.5)">e</text><text xml:space="preserve" font-family="GillSans,Gill Sans" font-size="24.0" fill="#000000" transform="matrix(1.00, 0.00, -0.00, -1.00, 695.0, 728.5)">n</text><text xml:space="preserve" font-family="GillSans,Gill Sans" font-size="24.0" fill="#000000" transform="matrix(1.00, 0.00, -0.00, -1.00, 707.0, 728.5)">t</text><path d="M 670.0 37.0 L 998.0 37.0 L 998.0 1.0 L 670.0 1.0 Z M 669.6 37.5 " fill="#FFFFFF"></path><g><clipPath id="clip0x6080010a9360"><path d="M 669.6 1.5 L 997.6 1.5 L 997.6 37.5 L 669.6 37.5 Z M 669.6 1.5 "></path></clipPath><g clip-path="url(#clip0x6080010a9360)"><text xml:space="preserve" font-family="GillSans,Gill Sans" font-size="12.0" fill="#000000" transform="matrix(1.00, 0.00, -0.00, -1.00, 779.4, 22.3)">S</text><text xml:space="preserve" font-family="GillSans,Gill Sans" font-size="12.0" fill="#000000" transform="matrix(1.00, 0.00, -0.00, -1.00, 784.9, 22.3)">c</text><text xml:space="preserve" font-family="GillSans,Gill Sans" font-size="12.0" fill="#000000" transform="matrix(1.00, 0.00, -0.00, -1.00, 790.1, 22.3)">i</text><text xml:space="preserve" font-family="GillSans,Gill Sans" font-size="12.0" fill="#000000" transform="matrix(1.00, 0.00, -0.00, -1.00, 792.8, 22.3)">e</text><text xml:space="preserve" font-family="GillSans,Gill Sans" font-size="12.0" fill="#000000" transform="matrix(1.00, 0.00, -0.00, -1.00, 798.5, 22.3)">n</text><text xml:space="preserve" font-family="GillSans,Gill Sans" font-size="12.0" fill="#000000" transform="matrix(1.00, 0.00, -0.00, -1.00, 804.5, 22.3)">c</text><text xml:space="preserve" font-family="GillSans,Gill Sans" font-size="12.0" fill="#000000" transform="matrix(1.00, 0.00, -0.00, -1.00, 809.8, 22.3)">e</text><text xml:space="preserve" font-family="GillSans,Gill Sans" font-size="12.0" fill="#000000" transform="matrix(1.00, 0.00, -0.00, -1.00, 815.5, 22.3)"> </text><text xml:space="preserve" font-family="GillSans,Gill Sans" font-size="12.0" fill="#000000" transform="matrix(1.00, 0.00, -0.00, -1.00, 818.9, 22.3)">D</text><text xml:space="preserve" font-family="GillSans,Gill Sans" font-size="12.0" fill="#000000" transform="matrix(1.00, 0.00, -0.00, -1.00, 827.9, 22.3)">a</text><text xml:space="preserve" font-family="GillSans,Gill Sans" font-size="12.0" fill="#000000" transform="matrix(1.00, 0.00, -0.00, -1.00, 833.0, 22.3)">i</text><text xml:space="preserve" font-family="GillSans,Gill Sans" font-size="12.0" fill="#000000" transform="matrix(1.00, 0.00, -0.00, -1.00, 835.6, 22.3)">l</text><text xml:space="preserve" font-family="GillSans,Gill Sans" font-size="12.0" fill="#000000" transform="matrix(1.00, 0.00, -0.00, -1.00, 838.1, 22.3)">y</text><text xml:space="preserve" font-family="GillSans,Gill Sans" font-size="12.0" fill="#000000" transform="matrix(1.00, 0.00, -0.00, -1.00, 843.4, 22.3)"> </text><text xml:space="preserve" font-family="GillSans,Gill Sans" font-size="12.0" fill="#000000" transform="matrix(1.00, 0.00, -0.00, -1.00, 846.7, 22.3)">a</text><text xml:space="preserve" font-family="GillSans,Gill Sans" font-size="12.0" fill="#000000" transform="matrix(1.00, 0.00, -0.00, -1.00, 851.8, 22.3)">n</text><text xml:space="preserve" font-family="GillSans,Gill Sans" font-size="12.0" fill="#000000" transform="matrix(1.00, 0.00, -0.00, -1.00, 857.8, 22.3)">d</text><text xml:space="preserve" font-family="GillSans,Gill Sans" font-size="12.0" fill="#000000" transform="matrix(1.00, 0.00, -0.00, -1.00, 864.0, 22.3)"> </text><text xml:space="preserve" font-family="GillSans,Gill Sans" font-size="12.0" fill="#000000" transform="matrix(1.00, 0.00, -0.00, -1.00, 867.3, 22.3)">I</text><text xml:space="preserve" font-family="GillSans,Gill Sans" font-size="12.0" fill="#000000" transform="matrix(1.00, 0.00, -0.00, -1.00, 870.3, 22.3)">R</text><text xml:space="preserve" font-family="GillSans,Gill Sans" font-size="12.0" fill="#000000" transform="matrix(1.00, 0.00, -0.00, -1.00, 877.5, 22.3)">R</text><text xml:space="preserve" font-family="GillSans,Gill Sans" font-size="12.0" fill="#000000" transform="matrix(1.00, 0.00, -0.00, -1.00, 884.8, 22.3)">I</text><text xml:space="preserve" font-family="GillSans,Gill Sans" font-size="12.0" fill="#000000" transform="matrix(1.00, 0.00, -0.00, -1.00, 674.1, 8.3)">h</text><text xml:space="preserve" font-family="GillSans,Gill Sans" font-size="12.0" fill="#000000" transform="matrix(1.00, 0.00, -0.00, -1.00, 680.1, 8.3)">t</text><text xml:space="preserve" font-family="GillSans,Gill Sans" font-size="12.0" fill="#000000" transform="matrix(1.00, 0.00, -0.00, -1.00, 684.1, 8.3)">t</text><text xml:space="preserve" font-family="GillSans,Gill Sans" font-size="12.0" fill="#000000" transform="matrix(1.00, 0.00, -0.00, -1.00, 688.1, 8.3)">p</text><text xml:space="preserve" font-family="GillSans,Gill Sans" font-size="12.0" fill="#000000" transform="matrix(1.00, 0.00, -0.00, -1.00, 694.1, 8.3)">:</text><text xml:space="preserve" font-family="GillSans,Gill Sans" font-size="12.0" fill="#000000" transform="matrix(1.00, 0.00, -0.00, -1.00, 696.7, 8.3)">/</text><text xml:space="preserve" font-family="GillSans,Gill Sans" font-size="12.0" fill="#000000" transform="matrix(1.00, 0.00, -0.00, -1.00, 700.1, 8.3)">/</text><text xml:space="preserve" font-family="GillSans,Gill Sans" font-size="12.0" fill="#000000" transform="matrix(1.00, 0.00, -0.00, -1.00, 703.5, 8.3)">w</text><text xml:space="preserve" font-family="GillSans,Gill Sans" font-size="12.0" fill="#000000" transform="matrix(1.00, 0.00, -0.00, -1.00, 712.1, 8.3)">w</text><text xml:space="preserve" font-family="GillSans,Gill Sans" font-size="12.0" fill="#000000" transform="matrix(1.00, 0.00, -0.00, -1.00, 720.7, 8.3)">w</text><text xml:space="preserve" font-family="GillSans,Gill Sans" font-size="12.0" fill="#000000" transform="matrix(1.00, 0.00, -0.00, -1.00, 728.6, 8.3)">.</text><text xml:space="preserve" font-family="GillSans,Gill Sans" font-size="12.0" fill="#000000" transform="matrix(1.00, 0.00, -0.00, -1.00, 731.3, 8.3)">s</text><text xml:space="preserve" font-family="GillSans,Gill Sans" font-size="12.0" fill="#000000" transform="matrix(1.00, 0.00, -0.00, -1.00, 735.9, 8.3)">c</text><text xml:space="preserve" font-family="GillSans,Gill Sans" font-size="12.0" fill="#000000" transform="matrix(1.00, 0.00, -0.00, -1.00, 741.2, 8.3)">i</text><text xml:space="preserve" font-family="GillSans,Gill Sans" font-size="12.0" fill="#000000" transform="matrix(1.00, 0.00, -0.00, -1.00, 743.8, 8.3)">e</text><text xml:space="preserve" font-family="GillSans,Gill Sans" font-size="12.0" fill="#000000" transform="matrix(1.00, 0.00, -0.00, -1.00, 749.5, 8.3)">n</text><text xml:space="preserve" font-family="GillSans,Gill Sans" font-size="12.0" fill="#000000" transform="matrix(1.00, 0.00, -0.00, -1.00, 755.5, 8.3)">c</text><text xml:space="preserve" font-family="GillSans,Gill Sans" font-size="12.0" fill="#000000" transform="matrix(1.00, 0.00, -0.00, -1.00, 760.8, 8.3)">e</text><text xml:space="preserve" font-family="GillSans,Gill Sans" font-size="12.0" fill="#000000" transform="matrix(1.00, 0.00, -0.00, -1.00, 766.5, 8.3)">d</text><text xml:space="preserve" font-family="GillSans,Gill Sans" font-size="12.0" fill="#000000" transform="matrix(1.00, 0.00, -0.00, -1.00, 772.7, 8.3)">a</text><text xml:space="preserve" font-family="GillSans,Gill Sans" font-size="12.0" fill="#000000" transform="matrix(1.00, 0.00, -0.00, -1.00, 777.8, 8.3)">i</text><text xml:space="preserve" font-family="GillSans,Gill Sans" font-size="12.0" fill="#000000" transform="matrix(1.00, 0.00, -0.00, -1.00, 780.4, 8.3)">l</text><text xml:space="preserve" font-family="GillSans,Gill Sans" font-size="12.0" fill="#000000" transform="matrix(1.00, 0.00, -0.00, -1.00, 782.9, 8.3)">y</text><text xml:space="preserve" font-family="GillSans,Gill Sans" font-size="12.0" fill="#000000" transform="matrix(1.00, 0.00, -0.00, -1.00, 787.2, 8.3)">.</text><text xml:space="preserve" font-family="GillSans,Gill Sans" font-size="12.0" fill="#000000" transform="matrix(1.00, 0.00, -0.00, -1.00, 789.9, 8.3)">c</text><text xml:space="preserve" font-family="GillSans,Gill Sans" font-size="12.0" fill="#000000" transform="matrix(1.00, 0.00, -0.00, -1.00, 795.1, 8.3)">o</text><text xml:space="preserve" font-family="GillSans,Gill Sans" font-size="12.0" fill="#000000" transform="matrix(1.00, 0.00, -0.00, -1.00, 801.7, 8.3)">m</text><text xml:space="preserve" font-family="GillSans,Gill Sans" font-size="12.0" fill="#000000" transform="matrix(1.00, 0.00, -0.00, -1.00, 811.0, 8.3)">/</text><text xml:space="preserve" font-family="GillSans,Gill Sans" font-size="12.0" fill="#000000" transform="matrix(1.00, 0.00, -0.00, -1.00, 814.3, 8.3)">r</text><text xml:space="preserve" font-family="GillSans,Gill Sans" font-size="12.0" fill="#000000" transform="matrix(1.00, 0.00, -0.00, -1.00, 818.9, 8.3)">e</text><text xml:space="preserve" font-family="GillSans,Gill Sans" font-size="12.0" fill="#000000" transform="matrix(1.00, 0.00, -0.00, -1.00, 824.6, 8.3)">l</text><text xml:space="preserve" font-family="GillSans,Gill Sans" font-size="12.0" fill="#000000" transform="matrix(1.00, 0.00, -0.00, -1.00, 827.2, 8.3)">e</text><text xml:space="preserve" font-family="GillSans,Gill Sans" font-size="12.0" fill="#000000" transform="matrix(1.00, 0.00, -0.00, -1.00, 833.0, 8.3)">a</text><text xml:space="preserve" font-family="GillSans,Gill Sans" font-size="12.0" fill="#000000" transform="matrix(1.00, 0.00, -0.00, -1.00, 838.1, 8.3)">s</text><text xml:space="preserve" font-family="GillSans,Gill Sans" font-size="12.0" fill="#000000" transform="matrix(1.00, 0.00, -0.00, -1.00, 842.7, 8.3)">e</text><text xml:space="preserve" font-family="GillSans,Gill Sans" font-size="12.0" fill="#000000" transform="matrix(1.00, 0.00, -0.00, -1.00, 848.5, 8.3)">s</text><text xml:space="preserve" font-family="GillSans,Gill Sans" font-size="12.0" fill="#000000" transform="matrix(1.00, 0.00, -0.00, -1.00, 853.1, 8.3)">/</text><text xml:space="preserve" font-family="GillSans,Gill Sans" font-size="12.0" fill="#000000" transform="matrix(1.00, 0.00, -0.00, -1.00, 856.4, 8.3)">2</text><text xml:space="preserve" font-family="GillSans,Gill Sans" font-size="12.0" fill="#000000" transform="matrix(1.00, 0.00, -0.00, -1.00, 862.4, 8.3)">0</text><text xml:space="preserve" font-family="GillSans,Gill Sans" font-size="12.0" fill="#000000" transform="matrix(1.00, 0.00, -0.00, -1.00, 868.4, 8.3)">0</text><text xml:space="preserve" font-family="GillSans,Gill Sans" font-size="12.0" fill="#000000" transform="matrix(1.00, 0.00, -0.00, -1.00, 874.4, 8.3)">9</text><text xml:space="preserve" font-family="GillSans,Gill Sans" font-size="12.0" fill="#000000" transform="matrix(1.00, 0.00, -0.00, -1.00, 880.4, 8.3)">/</text><text xml:space="preserve" font-family="GillSans,Gill Sans" font-size="12.0" fill="#000000" transform="matrix(1.00, 0.00, -0.00, -1.00, 883.8, 8.3)">0</text><text xml:space="preserve" font-family="GillSans,Gill Sans" font-size="12.0" fill="#000000" transform="matrix(1.00, 0.00, -0.00, -1.00, 889.8, 8.3)">7</text><text xml:space="preserve" font-family="GillSans,Gill Sans" font-size="12.0" fill="#000000" transform="matrix(1.00, 0.00, -0.00, -1.00, 895.8, 8.3)">/</text><text xml:space="preserve" font-family="GillSans,Gill Sans" font-size="12.0" fill="#000000" transform="matrix(1.00, 0.00, -0.00, -1.00, 899.2, 8.3)">0</text><text xml:space="preserve" font-family="GillSans,Gill Sans" font-size="12.0" fill="#000000" transform="matrix(1.00, 0.00, -0.00, -1.00, 905.2, 8.3)">9</text><text xml:space="preserve" font-family="GillSans,Gill Sans" font-size="12.0" fill="#000000" transform="matrix(1.00, 0.00, -0.00, -1.00, 911.2, 8.3)">0</text><text xml:space="preserve" font-family="GillSans,Gill Sans" font-size="12.0" fill="#000000" transform="matrix(1.00, 0.00, -0.00, -1.00, 917.2, 8.3)">7</text><text xml:space="preserve" font-family="GillSans,Gill Sans" font-size="12.0" fill="#000000" transform="matrix(1.00, 0.00, -0.00, -1.00, 923.2, 8.3)">2</text><text xml:space="preserve" font-family="GillSans,Gill Sans" font-size="12.0" fill="#000000" transform="matrix(1.00, 0.00, -0.00, -1.00, 929.2, 8.3)">3</text><text xml:space="preserve" font-family="GillSans,Gill Sans" font-size="12.0" fill="#000000" transform="matrix(1.00, 0.00, -0.00, -1.00, 935.2, 8.3)">1</text><text xml:space="preserve" font-family="GillSans,Gill Sans" font-size="12.0" fill="#000000" transform="matrix(1.00, 0.00, -0.00, -1.00, 941.2, 8.3)">1</text><text xml:space="preserve" font-family="GillSans,Gill Sans" font-size="12.0" fill="#000000" transform="matrix(1.00, 0.00, -0.00, -1.00, 947.2, 8.3)">3</text><text xml:space="preserve" font-family="GillSans,Gill Sans" font-size="12.0" fill="#000000" transform="matrix(1.00, 0.00, -0.00, -1.00, 953.2, 8.3)">5</text><text xml:space="preserve" font-family="GillSans,Gill Sans" font-size="12.0" fill="#000000" transform="matrix(1.00, 0.00, -0.00, -1.00, 959.2, 8.3)">1</text><text xml:space="preserve" font-family="GillSans,Gill Sans" font-size="12.0" fill="#000000" transform="matrix(1.00, 0.00, -0.00, -1.00, 965.2, 8.3)">2</text><text xml:space="preserve" font-family="GillSans,Gill Sans" font-size="12.0" fill="#000000" transform="matrix(1.00, 0.00, -0.00, -1.00, 971.2, 8.3)">.</text><text xml:space="preserve" font-family="GillSans,Gill Sans" font-size="12.0" fill="#000000" transform="matrix(1.00, 0.00, -0.00, -1.00, 973.8, 8.3)">h</text><text xml:space="preserve" font-family="GillSans,Gill Sans" font-size="12.0" fill="#000000" transform="matrix(1.00, 0.00, -0.00, -1.00, 979.8, 8.3)">t</text><text xml:space="preserve" font-family="GillSans,Gill Sans" font-size="12.0" fill="#000000" transform="matrix(1.00, 0.00, -0.00, -1.00, 983.8, 8.3)">m</text><path d="M 4.5 30.2 L 323.5 30.2 " fill="none" stroke="#000000" stroke-width="0.60" transform="matrix(1.00, 0.00, 0.00, -1.00, 669.6, 37.5)"></path></g></g></g></svg>