<?xml version="1.0" encoding="UTF-8" standalone="no"?><svg xmlns="http://www.w3.org/2000/svg" xmlns:xlink="http://www.w3.org/1999/xlink" clip-rule="evenodd" stroke-miterlimit="10" viewBox="0 0 711 82"><desc>SVG generated by Keynote</desc><defs></defs><g transform="matrix(1.00, 0.00, -0.00, -1.00, 0.0, 82.0)"><text xml:space="preserve" font-family="GillSans,Gill Sans" font-size="41.0" fill="#000000" transform="matrix(1.00, 0.00, -0.00, -1.00, 0.0, 44.0)">•</text><text xml:space="preserve" font-family="GillSans,Gill Sans" font-size="24.0" fill="#000000" transform="matrix(1.00, 0.00, -0.00, -1.00, 22.0, 49.5)">C</text><text xml:space="preserve" font-family="GillSans,Gill Sans" font-size="24.0" fill="#000000" transform="matrix(1.00, 0.00, -0.00, -1.00, 39.0, 49.5)">a</text><text xml:space="preserve" font-family="GillSans,Gill Sans" font-size="24.0" fill="#000000" transform="matrix(1.00, 0.00, -0.00, -1.00, 49.2, 49.5)">n</text><text xml:space="preserve" font-family="GillSans,Gill Sans" font-size="24.0" fill="#000000" transform="matrix(1.00, 0.00, -0.00, -1.00, 61.2, 49.5)"> </text><text xml:space="preserve" font-family="GillSans,Gill Sans" font-size="24.0" fill="#000000" transform="matrix(1.00, 0.00, -0.00, -1.00, 67.9, 49.5)">w</text><text xml:space="preserve" font-family="GillSans,Gill Sans" font-size="24.0" fill="#000000" transform="matrix(1.00, 0.00, -0.00, -1.00, 84.7, 49.5)">e</text><text xml:space="preserve" font-family="GillSans,Gill Sans" font-size="24.0" fill="#000000" transform="matrix(1.00, 0.00, -0.00, -1.00, 96.2, 49.5)"> </text><text xml:space="preserve" font-family="GillSans,Gill Sans" font-size="24.0" fill="#000000" transform="matrix(1.00, 0.00, -0.00, -1.00, 102.8, 49.5)">ﬁ</text><text xml:space="preserve" font-family="GillSans,Gill Sans" font-size="24.0" fill="#000000" transform="matrix(1.00, 0.00, -0.00, -1.00, 114.8, 49.5)">n</text><text xml:space="preserve" font-family="GillSans,Gill Sans" font-size="24.0" fill="#000000" transform="matrix(1.00, 0.00, -0.00, -1.00, 126.8, 49.5)">d</text><text xml:space="preserve" font-family="GillSans,Gill Sans" font-size="24.0" fill="#000000" transform="matrix(1.00, 0.00, -0.00, -1.00, 139.1, 49.5)"> </text><text xml:space="preserve" font-family="GillSans,Gill Sans" font-size="24.0" fill="#000000" transform="matrix(1.00, 0.00, -0.00, -1.00, 145.7, 49.5)">S</text><text xml:space="preserve" font-family="GillSans,Gill Sans" font-size="24.0" fill="#000000" transform="matrix(1.00, 0.00, -0.00, -1.00, 156.7, 49.5)">N</text><text xml:space="preserve" font-family="GillSans,Gill Sans" font-size="24.0" fill="#000000" transform="matrix(1.00, 0.00, -0.00, -1.00, 175.5, 49.5)">P</text><text xml:space="preserve" font-family="GillSans,Gill Sans" font-size="24.0" fill="#000000" transform="matrix(1.00, 0.00, -0.00, -1.00, 187.7, 49.5)">s</text><text xml:space="preserve" font-family="GillSans,Gill Sans" font-size="24.0" fill="#000000" transform="matrix(1.00, 0.00, -0.00, -1.00, 196.9, 49.5)"> </text><text xml:space="preserve" font-family="GillSans,Gill Sans" font-size="24.0" fill="#000000" transform="matrix(1.00, 0.00, -0.00, -1.00, 203.6, 49.5)">a</text><text xml:space="preserve" font-family="GillSans,Gill Sans" font-size="24.0" fill="#000000" transform="matrix(1.00, 0.00, -0.00, -1.00, 213.8, 49.5)">s</text><text xml:space="preserve" font-family="GillSans,Gill Sans" font-size="24.0" fill="#000000" transform="matrix(1.00, 0.00, -0.00, -1.00, 223.0, 49.5)">s</text><text xml:space="preserve" font-family="GillSans,Gill Sans" font-size="24.0" fill="#000000" transform="matrix(1.00, 0.00, -0.00, -1.00, 232.3, 49.5)">o</text><text xml:space="preserve" font-family="GillSans,Gill Sans" font-size="24.0" fill="#000000" transform="matrix(1.00, 0.00, -0.00, -1.00, 245.5, 49.5)">c</text><text xml:space="preserve" font-family="GillSans,Gill Sans" font-size="24.0" fill="#000000" transform="matrix(1.00, 0.00, -0.00, -1.00, 256.0, 49.5)">i</text><text xml:space="preserve" font-family="GillSans,Gill Sans" font-size="24.0" fill="#000000" transform="matrix(1.00, 0.00, -0.00, -1.00, 261.3, 49.5)">a</text><text xml:space="preserve" font-family="GillSans,Gill Sans" font-size="24.0" fill="#000000" transform="matrix(1.00, 0.00, -0.00, -1.00, 271.5, 49.5)">t</text><text xml:space="preserve" font-family="GillSans,Gill Sans" font-size="24.0" fill="#000000" transform="matrix(1.00, 0.00, -0.00, -1.00, 279.5, 49.5)">e</text><text xml:space="preserve" font-family="GillSans,Gill Sans" font-size="24.0" fill="#000000" transform="matrix(1.00, 0.00, -0.00, -1.00, 291.0, 49.5)">d</text><text xml:space="preserve" font-family="GillSans,Gill Sans" font-size="24.0" fill="#000000" transform="matrix(1.00, 0.00, -0.00, -1.00, 303.2, 49.5)"> </text><text xml:space="preserve" font-family="GillSans,Gill Sans" font-size="24.0" fill="#000000" transform="matrix(1.00, 0.00, -0.00, -1.00, 309.9, 49.5)">w</text><text xml:space="preserve" font-family="GillSans,Gill Sans" font-size="24.0" fill="#000000" transform="matrix(1.00, 0.00, -0.00, -1.00, 327.2, 49.5)">i</text><text xml:space="preserve" font-family="GillSans,Gill Sans" font-size="24.0" fill="#000000" transform="matrix(1.00, 0.00, -0.00, -1.00, 332.4, 49.5)">t</text><text xml:space="preserve" font-family="GillSans,Gill Sans" font-size="24.0" fill="#000000" transform="matrix(1.00, 0.00, -0.00, -1.00, 340.4, 49.5)">h</text><text xml:space="preserve" font-family="GillSans,Gill Sans" font-size="24.0" fill="#000000" transform="matrix(1.00, 0.00, -0.00, -1.00, 352.4, 49.5)"> </text><text xml:space="preserve" font-family="GillSans,Gill Sans" font-size="24.0" fill="#000000" transform="matrix(1.00, 0.00, -0.00, -1.00, 356.7, 49.5)">A</text><text xml:space="preserve" font-family="GillSans,Gill Sans" font-size="24.0" fill="#000000" transform="matrix(1.00, 0.00, -0.00, -1.00, 372.7, 49.5)">l</text><text xml:space="preserve" font-family="GillSans,Gill Sans" font-size="24.0" fill="#000000" transform="matrix(1.00, 0.00, -0.00, -1.00, 378.0, 49.5)">u</text><text xml:space="preserve" font-family="GillSans,Gill Sans" font-size="24.0" fill="#000000" transform="matrix(1.00, 0.00, -0.00, -1.00, 390.0, 49.5)">m</text><text xml:space="preserve" font-family="GillSans,Gill Sans" font-size="24.0" fill="#000000" transform="matrix(1.00, 0.00, -0.00, -1.00, 408.5, 49.5)">i</text><text xml:space="preserve" font-family="GillSans,Gill Sans" font-size="24.0" fill="#000000" transform="matrix(1.00, 0.00, -0.00, -1.00, 413.7, 49.5)">n</text><text xml:space="preserve" font-family="GillSans,Gill Sans" font-size="24.0" fill="#000000" transform="matrix(1.00, 0.00, -0.00, -1.00, 425.5, 49.5)">u</text><text xml:space="preserve" font-family="GillSans,Gill Sans" font-size="24.0" fill="#000000" transform="matrix(1.00, 0.00, -0.00, -1.00, 437.5, 49.5)">m</text><text xml:space="preserve" font-family="GillSans,Gill Sans" font-size="24.0" fill="#000000" transform="matrix(1.00, 0.00, -0.00, -1.00, 456.0, 49.5)"> </text><text xml:space="preserve" font-family="GillSans,Gill Sans" font-size="24.0" fill="#000000" transform="matrix(1.00, 0.00, -0.00, -1.00, 462.7, 49.5)">t</text><text xml:space="preserve" font-family="GillSans,Gill Sans" font-size="24.0" fill="#000000" transform="matrix(1.00, 0.00, -0.00, -1.00, 470.7, 49.5)">o</text><text xml:space="preserve" font-family="GillSans,Gill Sans" font-size="24.0" fill="#000000" transform="matrix(1.00, 0.00, -0.00, -1.00, 483.9, 49.5)">l</text><text xml:space="preserve" font-family="GillSans,Gill Sans" font-size="24.0" fill="#000000" transform="matrix(1.00, 0.00, -0.00, -1.00, 489.2, 49.5)">e</text><text xml:space="preserve" font-family="GillSans,Gill Sans" font-size="24.0" fill="#000000" transform="matrix(1.00, 0.00, -0.00, -1.00, 500.7, 49.5)">r</text><text xml:space="preserve" font-family="GillSans,Gill Sans" font-size="24.0" fill="#000000" transform="matrix(1.00, 0.00, -0.00, -1.00, 510.2, 49.5)">a</text><text xml:space="preserve" font-family="GillSans,Gill Sans" font-size="24.0" fill="#000000" transform="matrix(1.00, 0.00, -0.00, -1.00, 520.4, 49.5)">n</text><text xml:space="preserve" font-family="GillSans,Gill Sans" font-size="24.0" fill="#000000" transform="matrix(1.00, 0.00, -0.00, -1.00, 532.4, 49.5)">c</text><text xml:space="preserve" font-family="GillSans,Gill Sans" font-size="24.0" fill="#000000" transform="matrix(1.00, 0.00, -0.00, -1.00, 542.9, 49.5)">e</text><text xml:space="preserve" font-family="GillSans,Gill Sans" font-size="24.0" fill="#000000" transform="matrix(1.00, 0.00, -0.00, -1.00, 554.4, 49.5)"> </text><text xml:space="preserve" font-family="GillSans,Gill Sans" font-size="24.0" fill="#000000" transform="matrix(1.00, 0.00, -0.00, -1.00, 561.1, 49.5)">o</text><text xml:space="preserve" font-family="GillSans,Gill Sans" font-size="24.0" fill="#000000" transform="matrix(1.00, 0.00, -0.00, -1.00, 574.3, 49.5)">r</text><text xml:space="preserve" font-family="GillSans,Gill Sans" font-size="24.0" fill="#000000" transform="matrix(1.00, 0.00, -0.00, -1.00, 583.8, 49.5)"> </text><text xml:space="preserve" font-family="GillSans,Gill Sans" font-size="24.0" fill="#000000" transform="matrix(1.00, 0.00, -0.00, -1.00, 590.5, 49.5)">o</text><text xml:space="preserve" font-family="GillSans,Gill Sans" font-size="24.0" fill="#000000" transform="matrix(1.00, 0.00, -0.00, -1.00, 603.7, 49.5)">t</text><text xml:space="preserve" font-family="GillSans,Gill Sans" font-size="24.0" fill="#000000" transform="matrix(1.00, 0.00, -0.00, -1.00, 611.7, 49.5)">h</text><text xml:space="preserve" font-family="GillSans,Gill Sans" font-size="24.0" fill="#000000" transform="matrix(1.00, 0.00, -0.00, -1.00, 623.7, 49.5)">e</text><text xml:space="preserve" font-family="GillSans,Gill Sans" font-size="24.0" fill="#000000" transform="matrix(1.00, 0.00, -0.00, -1.00, 635.2, 49.5)">r</text><text xml:space="preserve" font-family="GillSans,Gill Sans" font-size="24.0" fill="#000000" transform="matrix(1.00, 0.00, -0.00, -1.00, 644.7, 49.5)"> </text><text xml:space="preserve" font-family="GillSans,Gill Sans" font-size="24.0" fill="#000000" transform="matrix(1.00, 0.00, -0.00, -1.00, 651.4, 49.5)">t</text><text xml:space="preserve" font-family="GillSans,Gill Sans" font-size="24.0" fill="#000000" transform="matrix(1.00, 0.00, -0.00, -1.00, 659.4, 49.5)">r</text><text xml:space="preserve" font-family="GillSans,Gill Sans" font-size="24.0" fill="#000000" transform="matrix(1.00, 0.00, -0.00, -1.00, 668.9, 49.5)">a</text><text xml:space="preserve" font-family="GillSans,Gill Sans" font-size="24.0" fill="#000000" transform="matrix(1.00, 0.00, -0.00, -1.00, 679.1, 49.5)">i</text><text xml:space="preserve" font-family="GillSans,Gill Sans" font-size="24.0" fill="#000000" transform="matrix(1.00, 0.00, -0.00, -1.00, 684.4, 49.5)">t</text><text xml:space="preserve" font-family="GillSans,Gill Sans" font-size="24.0" fill="#000000" transform="matrix(1.00, 0.00, -0.00, -1.00, 692.4, 49.5)">s</text><text xml:space="preserve" font-family="GillSans,Gill Sans" font-size="24.0" fill="#000000" transform="matrix(1.00, 0.00, -0.00, -1.00, 701.6, 49.5)">?</text><text xml:space="preserve" font-family="GillSans,Gill Sans" font-size="34.2" fill="#000000" transform="matrix(1.00, 0.00, -0.00, -1.00, 35.0, 8.9)">•</text><text xml:space="preserve" font-family="GillSans,Gill Sans" font-size="20.0" fill="#000000" transform="matrix(1.00, 0.00, -0.00, -1.00, 57.0, 13.6)">W</text><text xml:space="preserve" font-family="GillSans,Gill Sans" font-size="20.0" fill="#000000" transform="matrix(1.00, 0.00, -0.00, -1.00, 77.8, 13.6)">h</text><text xml:space="preserve" font-family="GillSans,Gill Sans" font-size="20.0" fill="#000000" transform="matrix(1.00, 0.00, -0.00, -1.00, 87.8, 13.6)">a</text><text xml:space="preserve" font-family="GillSans,Gill Sans" font-size="20.0" fill="#000000" transform="matrix(1.00, 0.00, -0.00, -1.00, 96.4, 13.6)">t</text><text xml:space="preserve" font-family="GillSans,Gill Sans" font-size="20.0" fill="#000000" transform="matrix(1.00, 0.00, -0.00, -1.00, 103.0, 13.6)"> </text><text xml:space="preserve" font-family="GillSans,Gill Sans" font-size="20.0" fill="#000000" transform="matrix(1.00, 0.00, -0.00, -1.00, 108.6, 13.6)">a</text><text xml:space="preserve" font-family="GillSans,Gill Sans" font-size="20.0" fill="#000000" transform="matrix(1.00, 0.00, -0.00, -1.00, 117.1, 13.6)">r</text><text xml:space="preserve" font-family="GillSans,Gill Sans" font-size="20.0" fill="#000000" transform="matrix(1.00, 0.00, -0.00, -1.00, 124.6, 13.6)">e</text><text xml:space="preserve" font-family="GillSans,Gill Sans" font-size="20.0" fill="#000000" transform="matrix(1.00, 0.00, -0.00, -1.00, 134.2, 13.6)"> </text><text xml:space="preserve" font-family="GillSans,Gill Sans" font-size="20.0" fill="#000000" transform="matrix(1.00, 0.00, -0.00, -1.00, 139.8, 13.6)">t</text><text xml:space="preserve" font-family="GillSans,Gill Sans" font-size="20.0" fill="#000000" transform="matrix(1.00, 0.00, -0.00, -1.00, 146.4, 13.6)">h</text><text xml:space="preserve" font-family="GillSans,Gill Sans" font-size="20.0" fill="#000000" transform="matrix(1.00, 0.00, -0.00, -1.00, 156.4, 13.6)">e</text><text xml:space="preserve" font-family="GillSans,Gill Sans" font-size="20.0" fill="#000000" transform="matrix(1.00, 0.00, -0.00, -1.00, 166.0, 13.6)"> </text><text xml:space="preserve" font-family="GillSans,Gill Sans" font-size="20.0" fill="#000000" transform="matrix(1.00, 0.00, -0.00, -1.00, 171.6, 13.6)">g</text><text xml:space="preserve" font-family="GillSans,Gill Sans" font-size="20.0" fill="#000000" transform="matrix(1.00, 0.00, -0.00, -1.00, 180.1, 13.6)">e</text><text xml:space="preserve" font-family="GillSans,Gill Sans" font-size="20.0" fill="#000000" transform="matrix(1.00, 0.00, -0.00, -1.00, 189.7, 13.6)">n</text><text xml:space="preserve" font-family="GillSans,Gill Sans" font-size="20.0" fill="#000000" transform="matrix(1.00, 0.00, -0.00, -1.00, 199.7, 13.6)">e</text><text xml:space="preserve" font-family="GillSans,Gill Sans" font-size="20.0" fill="#000000" transform="matrix(1.00, 0.00, -0.00, -1.00, 209.3, 13.6)">s</text><text xml:space="preserve" font-family="GillSans,Gill Sans" font-size="20.0" fill="#000000" transform="matrix(1.00, 0.00, -0.00, -1.00, 216.9, 13.6)"> </text><text xml:space="preserve" font-family="GillSans,Gill Sans" font-size="20.0" fill="#000000" transform="matrix(1.00, 0.00, -0.00, -1.00, 222.5, 13.6)">u</text><text xml:space="preserve" font-family="GillSans,Gill Sans" font-size="20.0" fill="#000000" transform="matrix(1.00, 0.00, -0.00, -1.00, 232.5, 13.6)">n</text><text xml:space="preserve" font-family="GillSans,Gill Sans" font-size="20.0" fill="#000000" transform="matrix(1.00, 0.00, -0.00, -1.00, 242.5, 13.6)">d</text><text xml:space="preserve" font-family="GillSans,Gill Sans" font-size="20.0" fill="#000000" transform="matrix(1.00, 0.00, -0.00, -1.00, 252.7, 13.6)">e</text><text xml:space="preserve" font-family="GillSans,Gill Sans" font-size="20.0" fill="#000000" transform="matrix(1.00, 0.00, -0.00, -1.00, 262.3, 13.6)">r</text><text xml:space="preserve" font-family="GillSans,Gill Sans" font-size="20.0" fill="#000000" transform="matrix(1.00, 0.00, -0.00, -1.00, 270.2, 13.6)">l</text><text xml:space="preserve" font-family="GillSans,Gill Sans" font-size="20.0" fill="#000000" transform="matrix(1.00, 0.00, -0.00, -1.00, 274.4, 13.6)">y</text><text xml:space="preserve" font-family="GillSans,Gill Sans" font-size="20.0" fill="#000000" transform="matrix(1.00, 0.00, -0.00, -1.00, 283.1, 13.6)">i</text><text xml:space="preserve" font-family="GillSans,Gill Sans" font-size="20.0" fill="#000000" transform="matrix(1.00, 0.00, -0.00, -1.00, 287.5, 13.6)">n</text><text xml:space="preserve" font-family="GillSans,Gill Sans" font-size="20.0" fill="#000000" transform="matrix(1.00, 0.00, -0.00, -1.00, 297.5, 13.6)">g</text><text xml:space="preserve" font-family="GillSans,Gill Sans" font-size="20.0" fill="#000000" transform="matrix(1.00, 0.00, -0.00, -1.00, 306.1, 13.6)"> </text><text xml:space="preserve" font-family="GillSans,Gill Sans" font-size="20.0" fill="#000000" transform="matrix(1.00, 0.00, -0.00, -1.00, 311.6, 13.6)">t</text><text xml:space="preserve" font-family="GillSans,Gill Sans" font-size="20.0" fill="#000000" transform="matrix(1.00, 0.00, -0.00, -1.00, 318.3, 13.6)">h</text><text xml:space="preserve" font-family="GillSans,Gill Sans" font-size="20.0" fill="#000000" transform="matrix(1.00, 0.00, -0.00, -1.00, 328.3, 13.6)">e</text><text xml:space="preserve" font-family="GillSans,Gill Sans" font-size="20.0" fill="#000000" transform="matrix(1.00, 0.00, -0.00, -1.00, 337.9, 13.6)">s</text><text xml:space="preserve" font-family="GillSans,Gill Sans" font-size="20.0" fill="#000000" transform="matrix(1.00, 0.00, -0.00, -1.00, 345.5, 13.6)">e</text><text xml:space="preserve" font-family="GillSans,Gill Sans" font-size="20.0" fill="#000000" transform="matrix(1.00, 0.00, -0.00, -1.00, 355.1, 13.6)"> </text><text xml:space="preserve" font-family="GillSans,Gill Sans" font-size="20.0" fill="#000000" transform="matrix(1.00, 0.00, -0.00, -1.00, 360.7, 13.6)">S</text><text xml:space="preserve" font-family="GillSans,Gill Sans" font-size="20.0" fill="#000000" transform="matrix(1.00, 0.00, -0.00, -1.00, 369.8, 13.6)">N</text><text xml:space="preserve" font-family="GillSans,Gill Sans" font-size="20.0" fill="#000000" transform="matrix(1.00, 0.00, -0.00, -1.00, 385.4, 13.6)">P</text><text xml:space="preserve" font-family="GillSans,Gill Sans" font-size="20.0" fill="#000000" transform="matrix(1.00, 0.00, -0.00, -1.00, 395.6, 13.6)">s</text><text xml:space="preserve" font-family="GillSans,Gill Sans" font-size="20.0" fill="#000000" transform="matrix(1.00, 0.00, -0.00, -1.00, 403.3, 13.6)">?</text></g></svg>