<?xml version="1.0" encoding="UTF-8" standalone="no"?><svg xmlns="http://www.w3.org/2000/svg" xmlns:xlink="http://www.w3.org/1999/xlink" clip-rule="evenodd" stroke-miterlimit="10" viewBox="0 0 92 37"><desc>SVG generated by Keynote</desc><defs></defs><g transform="matrix(1.00, 0.00, -0.00, -1.00, 0.0, 37.0)"><text xml:space="preserve" font-family="GillSans,Gill Sans" font-size="30.8" fill="#000000" transform="matrix(1.00, 0.00, -0.00, -1.00, 0.0, 8.1)">•</text><text xml:space="preserve" font-family="GillSans,Gill Sans" font-size="18.0" fill="#000000" transform="matrix(1.00, 0.00, -0.00, -1.00, 22.0, 12.1)">s</text><text xml:space="preserve" font-family="GillSans,Gill Sans" font-size="18.0" fill="#000000" transform="matrix(1.00, 0.00, -0.00, -1.00, 28.9, 12.1)">t</text><text xml:space="preserve" font-family="GillSans,Gill Sans" font-size="18.0" fill="#000000" transform="matrix(1.00, 0.00, -0.00, -1.00, 34.9, 12.1)">i</text><text xml:space="preserve" font-family="GillSans,Gill Sans" font-size="18.0" fill="#000000" transform="matrix(1.00, 0.00, -0.00, -1.00, 38.9, 12.1)">c</text><text xml:space="preserve" font-family="GillSans,Gill Sans" font-size="18.0" fill="#000000" transform="matrix(1.00, 0.00, -0.00, -1.00, 46.8, 12.1)">k</text><text xml:space="preserve" font-family="GillSans,Gill Sans" font-size="18.0" fill="#000000" transform="matrix(1.00, 0.00, -0.00, -1.00, 55.4, 12.1)">i</text><text xml:space="preserve" font-family="GillSans,Gill Sans" font-size="18.0" fill="#000000" transform="matrix(1.00, 0.00, -0.00, -1.00, 59.3, 12.1)">n</text><text xml:space="preserve" font-family="GillSans,Gill Sans" font-size="18.0" fill="#000000" transform="matrix(1.00, 0.00, -0.00, -1.00, 68.3, 12.1)">e</text><text xml:space="preserve" font-family="GillSans,Gill Sans" font-size="18.0" fill="#000000" transform="matrix(1.00, 0.00, -0.00, -1.00, 76.9, 12.1)">s</text><text xml:space="preserve" font-family="GillSans,Gill Sans" font-size="18.0" fill="#000000" transform="matrix(1.00, 0.00, -0.00, -1.00, 83.9, 12.1)">s</text></g></svg>