<?xml version="1.0" encoding="UTF-8" standalone="no"?><svg xmlns="http://www.w3.org/2000/svg" xmlns:xlink="http://www.w3.org/1999/xlink" clip-rule="evenodd" stroke-miterlimit="10" viewBox="0 0 181 37"><desc>SVG generated by Keynote</desc><defs></defs><g transform="matrix(1.00, 0.00, -0.00, -1.00, 0.0, 37.0)"><text xml:space="preserve" font-family="GillSans,Gill Sans" font-size="30.8" fill="#000000" transform="matrix(1.00, 0.00, -0.00, -1.00, 0.0, 8.1)">•</text><text xml:space="preserve" font-family="GillSans,Gill Sans" font-size="18.0" fill="#000000" transform="matrix(1.00, 0.00, -0.00, -1.00, 22.0, 12.1)">M</text><text xml:space="preserve" font-family="GillSans,Gill Sans" font-size="18.0" fill="#000000" transform="matrix(1.00, 0.00, -0.00, -1.00, 36.1, 12.1)">a</text><text xml:space="preserve" font-family="GillSans,Gill Sans" font-size="18.0" fill="#000000" transform="matrix(1.00, 0.00, -0.00, -1.00, 43.7, 12.1)">n</text><text xml:space="preserve" font-family="GillSans,Gill Sans" font-size="18.0" fill="#000000" transform="matrix(1.00, 0.00, -0.00, -1.00, 52.4, 12.1)">y</text><text xml:space="preserve" font-family="GillSans,Gill Sans" font-size="18.0" fill="#000000" transform="matrix(1.00, 0.00, -0.00, -1.00, 60.3, 12.1)"> </text><text xml:space="preserve" font-family="GillSans,Gill Sans" font-size="18.0" fill="#000000" transform="matrix(1.00, 0.00, -0.00, -1.00, 65.2, 12.1)">a</text><text xml:space="preserve" font-family="GillSans,Gill Sans" font-size="18.0" fill="#000000" transform="matrix(1.00, 0.00, -0.00, -1.00, 72.9, 12.1)">r</text><text xml:space="preserve" font-family="GillSans,Gill Sans" font-size="18.0" fill="#000000" transform="matrix(1.00, 0.00, -0.00, -1.00, 79.7, 12.1)">e</text><text xml:space="preserve" font-family="GillSans,Gill Sans" font-size="18.0" fill="#000000" transform="matrix(1.00, 0.00, -0.00, -1.00, 88.3, 12.1)"> </text><text xml:space="preserve" font-family="GillSans,Gill Sans" font-size="18.0" fill="#000000" transform="matrix(1.00, 0.00, -0.00, -1.00, 93.3, 12.1)">j</text><text xml:space="preserve" font-family="GillSans,Gill Sans" font-size="18.0" fill="#000000" transform="matrix(1.00, 0.00, -0.00, -1.00, 97.3, 12.1)">u</text><text xml:space="preserve" font-family="GillSans,Gill Sans" font-size="18.0" fill="#000000" transform="matrix(1.00, 0.00, -0.00, -1.00, 106.3, 12.1)">s</text><text xml:space="preserve" font-family="GillSans,Gill Sans" font-size="18.0" fill="#000000" transform="matrix(1.00, 0.00, -0.00, -1.00, 113.2, 12.1)">t</text><text xml:space="preserve" font-family="GillSans,Gill Sans" font-size="18.0" fill="#000000" transform="matrix(1.00, 0.00, -0.00, -1.00, 119.2, 12.1)"> </text><text xml:space="preserve" font-family="GillSans,Gill Sans" font-size="18.0" fill="#000000" transform="matrix(1.00, 0.00, -0.00, -1.00, 124.2, 12.1)">r</text><text xml:space="preserve" font-family="GillSans,Gill Sans" font-size="18.0" fill="#000000" transform="matrix(1.00, 0.00, -0.00, -1.00, 131.3, 12.1)">a</text><text xml:space="preserve" font-family="GillSans,Gill Sans" font-size="18.0" fill="#000000" transform="matrix(1.00, 0.00, -0.00, -1.00, 139.0, 12.1)">n</text><text xml:space="preserve" font-family="GillSans,Gill Sans" font-size="18.0" fill="#000000" transform="matrix(1.00, 0.00, -0.00, -1.00, 148.0, 12.1)">d</text><text xml:space="preserve" font-family="GillSans,Gill Sans" font-size="18.0" fill="#000000" transform="matrix(1.00, 0.00, -0.00, -1.00, 157.2, 12.1)">o</text><text xml:space="preserve" font-family="GillSans,Gill Sans" font-size="18.0" fill="#000000" transform="matrix(1.00, 0.00, -0.00, -1.00, 167.1, 12.1)">m</text></g></svg>