<?xml version="1.0" encoding="UTF-8" standalone="no"?><svg xmlns="http://www.w3.org/2000/svg" xmlns:xlink="http://www.w3.org/1999/xlink" clip-rule="evenodd" stroke-miterlimit="10" viewBox="0 0 533 41"><desc>SVG generated by Keynote</desc><defs></defs><g transform="matrix(1.00, 0.00, -0.00, -1.00, 0.0, 41.0)"><text xml:space="preserve" font-family="GillSans,Gill Sans" font-size="34.2" fill="#000000" transform="matrix(1.00, 0.00, -0.00, -1.00, 0.0, 8.9)">•</text><text xml:space="preserve" font-family="GillSans,Gill Sans" font-size="20.0" fill="#000000" transform="matrix(1.00, 0.00, -0.00, -1.00, 22.0, 13.6)">C</text><text xml:space="preserve" font-family="GillSans,Gill Sans" font-size="20.0" fill="#000000" transform="matrix(1.00, 0.00, -0.00, -1.00, 36.2, 13.6)">l</text><text xml:space="preserve" font-family="GillSans,Gill Sans" font-size="20.0" fill="#000000" transform="matrix(1.00, 0.00, -0.00, -1.00, 40.5, 13.6)">i</text><text xml:space="preserve" font-family="GillSans,Gill Sans" font-size="20.0" fill="#000000" transform="matrix(1.00, 0.00, -0.00, -1.00, 44.9, 13.6)">m</text><text xml:space="preserve" font-family="GillSans,Gill Sans" font-size="20.0" fill="#000000" transform="matrix(1.00, 0.00, -0.00, -1.00, 60.4, 13.6)">a</text><text xml:space="preserve" font-family="GillSans,Gill Sans" font-size="20.0" fill="#000000" transform="matrix(1.00, 0.00, -0.00, -1.00, 68.9, 13.6)">t</text><text xml:space="preserve" font-family="GillSans,Gill Sans" font-size="20.0" fill="#000000" transform="matrix(1.00, 0.00, -0.00, -1.00, 75.5, 13.6)">e</text><text xml:space="preserve" font-family="GillSans,Gill Sans" font-size="20.0" fill="#000000" transform="matrix(1.00, 0.00, -0.00, -1.00, 85.1, 13.6)"> </text><text xml:space="preserve" font-family="GillSans,Gill Sans" font-size="20.0" fill="#000000" transform="matrix(1.00, 0.00, -0.00, -1.00, 90.7, 13.6)">c</text><text xml:space="preserve" font-family="GillSans,Gill Sans" font-size="20.0" fill="#000000" transform="matrix(1.00, 0.00, -0.00, -1.00, 99.4, 13.6)">h</text><text xml:space="preserve" font-family="GillSans,Gill Sans" font-size="20.0" fill="#000000" transform="matrix(1.00, 0.00, -0.00, -1.00, 109.4, 13.6)">a</text><text xml:space="preserve" font-family="GillSans,Gill Sans" font-size="20.0" fill="#000000" transform="matrix(1.00, 0.00, -0.00, -1.00, 118.0, 13.6)">n</text><text xml:space="preserve" font-family="GillSans,Gill Sans" font-size="20.0" fill="#000000" transform="matrix(1.00, 0.00, -0.00, -1.00, 128.0, 13.6)">g</text><text xml:space="preserve" font-family="GillSans,Gill Sans" font-size="20.0" fill="#000000" transform="matrix(1.00, 0.00, -0.00, -1.00, 136.5, 13.6)">e</text><text xml:space="preserve" font-family="GillSans,Gill Sans" font-size="20.0" fill="#000000" transform="matrix(1.00, 0.00, -0.00, -1.00, 146.1, 13.6)"> </text><text xml:space="preserve" font-family="GillSans,Gill Sans" font-size="20.0" fill="#000000" transform="matrix(1.00, 0.00, -0.00, -1.00, 151.6, 13.6)">a</text><text xml:space="preserve" font-family="GillSans,Gill Sans" font-size="20.0" fill="#000000" transform="matrix(1.00, 0.00, -0.00, -1.00, 160.2, 13.6)">n</text><text xml:space="preserve" font-family="GillSans,Gill Sans" font-size="20.0" fill="#000000" transform="matrix(1.00, 0.00, -0.00, -1.00, 170.2, 13.6)">d</text><text xml:space="preserve" font-family="GillSans,Gill Sans" font-size="20.0" fill="#000000" transform="matrix(1.00, 0.00, -0.00, -1.00, 180.4, 13.6)"> </text><text xml:space="preserve" font-family="GillSans,Gill Sans" font-size="20.0" fill="#000000" transform="matrix(1.00, 0.00, -0.00, -1.00, 185.9, 13.6)">i</text><text xml:space="preserve" font-family="GillSans,Gill Sans" font-size="20.0" fill="#000000" transform="matrix(1.00, 0.00, -0.00, -1.00, 190.3, 13.6)">n</text><text xml:space="preserve" font-family="GillSans,Gill Sans" font-size="20.0" fill="#000000" transform="matrix(1.00, 0.00, -0.00, -1.00, 200.3, 13.6)">c</text><text xml:space="preserve" font-family="GillSans,Gill Sans" font-size="20.0" fill="#000000" transform="matrix(1.00, 0.00, -0.00, -1.00, 209.1, 13.6)">r</text><text xml:space="preserve" font-family="GillSans,Gill Sans" font-size="20.0" fill="#000000" transform="matrix(1.00, 0.00, -0.00, -1.00, 216.6, 13.6)">e</text><text xml:space="preserve" font-family="GillSans,Gill Sans" font-size="20.0" fill="#000000" transform="matrix(1.00, 0.00, -0.00, -1.00, 226.2, 13.6)">a</text><text xml:space="preserve" font-family="GillSans,Gill Sans" font-size="20.0" fill="#000000" transform="matrix(1.00, 0.00, -0.00, -1.00, 234.7, 13.6)">s</text><text xml:space="preserve" font-family="GillSans,Gill Sans" font-size="20.0" fill="#000000" transform="matrix(1.00, 0.00, -0.00, -1.00, 242.4, 13.6)">i</text><text xml:space="preserve" font-family="GillSans,Gill Sans" font-size="20.0" fill="#000000" transform="matrix(1.00, 0.00, -0.00, -1.00, 246.8, 13.6)">n</text><text xml:space="preserve" font-family="GillSans,Gill Sans" font-size="20.0" fill="#000000" transform="matrix(1.00, 0.00, -0.00, -1.00, 256.8, 13.6)">g</text><text xml:space="preserve" font-family="GillSans,Gill Sans" font-size="20.0" fill="#000000" transform="matrix(1.00, 0.00, -0.00, -1.00, 265.3, 13.6)"> </text><text xml:space="preserve" font-family="GillSans,Gill Sans" font-size="20.0" fill="#000000" transform="matrix(1.00, 0.00, -0.00, -1.00, 270.9, 13.6)">u</text><text xml:space="preserve" font-family="GillSans,Gill Sans" font-size="20.0" fill="#000000" transform="matrix(1.00, 0.00, -0.00, -1.00, 280.9, 13.6)">n</text><text xml:space="preserve" font-family="GillSans,Gill Sans" font-size="20.0" fill="#000000" transform="matrix(1.00, 0.00, -0.00, -1.00, 290.9, 13.6)">p</text><text xml:space="preserve" font-family="GillSans,Gill Sans" font-size="20.0" fill="#000000" transform="matrix(1.00, 0.00, -0.00, -1.00, 300.9, 13.6)">r</text><text xml:space="preserve" font-family="GillSans,Gill Sans" font-size="20.0" fill="#000000" transform="matrix(1.00, 0.00, -0.00, -1.00, 308.4, 13.6)">e</text><text xml:space="preserve" font-family="GillSans,Gill Sans" font-size="20.0" fill="#000000" transform="matrix(1.00, 0.00, -0.00, -1.00, 318.0, 13.6)">d</text><text xml:space="preserve" font-family="GillSans,Gill Sans" font-size="20.0" fill="#000000" transform="matrix(1.00, 0.00, -0.00, -1.00, 328.1, 13.6)">i</text><text xml:space="preserve" font-family="GillSans,Gill Sans" font-size="20.0" fill="#000000" transform="matrix(1.00, 0.00, -0.00, -1.00, 332.5, 13.6)">c</text><text xml:space="preserve" font-family="GillSans,Gill Sans" font-size="20.0" fill="#000000" transform="matrix(1.00, 0.00, -0.00, -1.00, 341.3, 13.6)">t</text><text xml:space="preserve" font-family="GillSans,Gill Sans" font-size="20.0" fill="#000000" transform="matrix(1.00, 0.00, -0.00, -1.00, 348.0, 13.6)">a</text><text xml:space="preserve" font-family="GillSans,Gill Sans" font-size="20.0" fill="#000000" transform="matrix(1.00, 0.00, -0.00, -1.00, 356.5, 13.6)">b</text><text xml:space="preserve" font-family="GillSans,Gill Sans" font-size="20.0" fill="#000000" transform="matrix(1.00, 0.00, -0.00, -1.00, 366.5, 13.6)">i</text><text xml:space="preserve" font-family="GillSans,Gill Sans" font-size="20.0" fill="#000000" transform="matrix(1.00, 0.00, -0.00, -1.00, 370.9, 13.6)">l</text><text xml:space="preserve" font-family="GillSans,Gill Sans" font-size="20.0" fill="#000000" transform="matrix(1.00, 0.00, -0.00, -1.00, 375.3, 13.6)">i</text><text xml:space="preserve" font-family="GillSans,Gill Sans" font-size="20.0" fill="#000000" transform="matrix(1.00, 0.00, -0.00, -1.00, 379.7, 13.6)">t</text><text xml:space="preserve" font-family="GillSans,Gill Sans" font-size="20.0" fill="#000000" transform="matrix(1.00, 0.00, -0.00, -1.00, 386.3, 13.6)">y</text><text xml:space="preserve" font-family="GillSans,Gill Sans" font-size="20.0" fill="#000000" transform="matrix(1.00, 0.00, -0.00, -1.00, 395.1, 13.6)"> </text><text xml:space="preserve" font-family="GillSans,Gill Sans" font-size="20.0" fill="#000000" transform="matrix(1.00, 0.00, -0.00, -1.00, 400.6, 13.6)">w</text><text xml:space="preserve" font-family="GillSans,Gill Sans" font-size="20.0" fill="#000000" transform="matrix(1.00, 0.00, -0.00, -1.00, 415.0, 13.6)">i</text><text xml:space="preserve" font-family="GillSans,Gill Sans" font-size="20.0" fill="#000000" transform="matrix(1.00, 0.00, -0.00, -1.00, 419.4, 13.6)">l</text><text xml:space="preserve" font-family="GillSans,Gill Sans" font-size="20.0" fill="#000000" transform="matrix(1.00, 0.00, -0.00, -1.00, 423.8, 13.6)">l</text><text xml:space="preserve" font-family="GillSans,Gill Sans" font-size="20.0" fill="#000000" transform="matrix(1.00, 0.00, -0.00, -1.00, 428.2, 13.6)"> </text><text xml:space="preserve" font-family="GillSans,Gill Sans" font-size="20.0" fill="#000000" transform="matrix(1.00, 0.00, -0.00, -1.00, 433.7, 13.6)">r</text><text xml:space="preserve" font-family="GillSans,Gill Sans" font-size="20.0" fill="#000000" transform="matrix(1.00, 0.00, -0.00, -1.00, 441.3, 13.6)">e</text><text xml:space="preserve" font-family="GillSans,Gill Sans" font-size="20.0" fill="#000000" transform="matrix(1.00, 0.00, -0.00, -1.00, 450.8, 13.6)">d</text><text xml:space="preserve" font-family="GillSans,Gill Sans" font-size="20.0" fill="#000000" transform="matrix(1.00, 0.00, -0.00, -1.00, 461.0, 13.6)">u</text><text xml:space="preserve" font-family="GillSans,Gill Sans" font-size="20.0" fill="#000000" transform="matrix(1.00, 0.00, -0.00, -1.00, 471.0, 13.6)">c</text><text xml:space="preserve" font-family="GillSans,Gill Sans" font-size="20.0" fill="#000000" transform="matrix(1.00, 0.00, -0.00, -1.00, 479.8, 13.6)">e</text><text xml:space="preserve" font-family="GillSans,Gill Sans" font-size="20.0" fill="#000000" transform="matrix(1.00, 0.00, -0.00, -1.00, 489.4, 13.6)"> </text><text xml:space="preserve" font-family="GillSans,Gill Sans" font-size="20.0" fill="#000000" transform="matrix(1.00, 0.00, -0.00, -1.00, 494.9, 13.6)">y</text><text xml:space="preserve" font-family="GillSans,Gill Sans" font-size="20.0" fill="#000000" transform="matrix(1.00, 0.00, -0.00, -1.00, 503.7, 13.6)">i</text><text xml:space="preserve" font-family="GillSans,Gill Sans" font-size="20.0" fill="#000000" transform="matrix(1.00, 0.00, -0.00, -1.00, 508.1, 13.6)">e</text><text xml:space="preserve" font-family="GillSans,Gill Sans" font-size="20.0" fill="#000000" transform="matrix(1.00, 0.00, -0.00, -1.00, 517.6, 13.6)">l</text><text xml:space="preserve" font-family="GillSans,Gill Sans" font-size="20.0" fill="#000000" transform="matrix(1.00, 0.00, -0.00, -1.00, 522.0, 13.6)">d</text></g></svg>