<?xml version="1.0" encoding="UTF-8" standalone="no"?><svg xmlns="http://www.w3.org/2000/svg" xmlns:xlink="http://www.w3.org/1999/xlink" clip-rule="evenodd" stroke-miterlimit="10" viewBox="0 0 474 48"><desc>SVG generated by Keynote</desc><defs></defs><g transform="matrix(1.00, 0.00, -0.00, -1.00, 0.0, 48.0)"><text xml:space="preserve" font-family="GillSans,Gill Sans" font-size="41.0" fill="#000000" transform="matrix(1.00, 0.00, -0.00, -1.00, 0.0, 10.0)">•</text><text xml:space="preserve" font-family="GillSans,Gill Sans" font-size="24.0" fill="#000000" transform="matrix(1.00, 0.00, -0.00, -1.00, 22.0, 15.5)">I</text><text xml:space="preserve" font-family="GillSans,Gill Sans" font-size="24.0" fill="#000000" transform="matrix(1.00, 0.00, -0.00, -1.00, 28.0, 15.5)">d</text><text xml:space="preserve" font-family="GillSans,Gill Sans" font-size="24.0" fill="#000000" transform="matrix(1.00, 0.00, -0.00, -1.00, 40.2, 15.5)">e</text><text xml:space="preserve" font-family="GillSans,Gill Sans" font-size="24.0" fill="#000000" transform="matrix(1.00, 0.00, -0.00, -1.00, 51.7, 15.5)">n</text><text xml:space="preserve" font-family="GillSans,Gill Sans" font-size="24.0" fill="#000000" transform="matrix(1.00, 0.00, -0.00, -1.00, 63.7, 15.5)">t</text><text xml:space="preserve" font-family="GillSans,Gill Sans" font-size="24.0" fill="#000000" transform="matrix(1.00, 0.00, -0.00, -1.00, 71.7, 15.5)">i</text><text xml:space="preserve" font-family="GillSans,Gill Sans" font-size="24.0" fill="#000000" transform="matrix(1.00, 0.00, -0.00, -1.00, 77.0, 15.5)">f</text><text xml:space="preserve" font-family="GillSans,Gill Sans" font-size="24.0" fill="#000000" transform="matrix(1.00, 0.00, -0.00, -1.00, 83.0, 15.5)">y</text><text xml:space="preserve" font-family="GillSans,Gill Sans" font-size="24.0" fill="#000000" transform="matrix(1.00, 0.00, -0.00, -1.00, 93.5, 15.5)"> </text><text xml:space="preserve" font-family="GillSans,Gill Sans" font-size="24.0" fill="#000000" transform="matrix(1.00, 0.00, -0.00, -1.00, 100.2, 15.5)">g</text><text xml:space="preserve" font-family="GillSans,Gill Sans" font-size="24.0" fill="#000000" transform="matrix(1.00, 0.00, -0.00, -1.00, 110.4, 15.5)">e</text><text xml:space="preserve" font-family="GillSans,Gill Sans" font-size="24.0" fill="#000000" transform="matrix(1.00, 0.00, -0.00, -1.00, 121.9, 15.5)">n</text><text xml:space="preserve" font-family="GillSans,Gill Sans" font-size="24.0" fill="#000000" transform="matrix(1.00, 0.00, -0.00, -1.00, 133.9, 15.5)">e</text><text xml:space="preserve" font-family="GillSans,Gill Sans" font-size="24.0" fill="#000000" transform="matrix(1.00, 0.00, -0.00, -1.00, 145.4, 15.5)">s</text><text xml:space="preserve" font-family="GillSans,Gill Sans" font-size="24.0" fill="#000000" transform="matrix(1.00, 0.00, -0.00, -1.00, 154.6, 15.5)"> </text><text xml:space="preserve" font-family="GillSans,Gill Sans" font-size="24.0" fill="#000000" transform="matrix(1.00, 0.00, -0.00, -1.00, 161.3, 15.5)">o</text><text xml:space="preserve" font-family="GillSans,Gill Sans" font-size="24.0" fill="#000000" transform="matrix(1.00, 0.00, -0.00, -1.00, 174.5, 15.5)">r</text><text xml:space="preserve" font-family="GillSans,Gill Sans" font-size="24.0" fill="#000000" transform="matrix(1.00, 0.00, -0.00, -1.00, 184.0, 15.5)"> </text><text xml:space="preserve" font-family="GillSans,Gill Sans" font-size="24.0" fill="#000000" transform="matrix(1.00, 0.00, -0.00, -1.00, 190.7, 15.5)">g</text><text xml:space="preserve" font-family="GillSans,Gill Sans" font-size="24.0" fill="#000000" transform="matrix(1.00, 0.00, -0.00, -1.00, 200.9, 15.5)">e</text><text xml:space="preserve" font-family="GillSans,Gill Sans" font-size="24.0" fill="#000000" transform="matrix(1.00, 0.00, -0.00, -1.00, 212.4, 15.5)">n</text><text xml:space="preserve" font-family="GillSans,Gill Sans" font-size="24.0" fill="#000000" transform="matrix(1.00, 0.00, -0.00, -1.00, 224.4, 15.5)">o</text><text xml:space="preserve" font-family="GillSans,Gill Sans" font-size="24.0" fill="#000000" transform="matrix(1.00, 0.00, -0.00, -1.00, 237.7, 15.5)">m</text><text xml:space="preserve" font-family="GillSans,Gill Sans" font-size="24.0" fill="#000000" transform="matrix(1.00, 0.00, -0.00, -1.00, 256.2, 15.5)">i</text><text xml:space="preserve" font-family="GillSans,Gill Sans" font-size="24.0" fill="#000000" transform="matrix(1.00, 0.00, -0.00, -1.00, 261.4, 15.5)">c</text><text xml:space="preserve" font-family="GillSans,Gill Sans" font-size="24.0" fill="#000000" transform="matrix(1.00, 0.00, -0.00, -1.00, 271.9, 15.5)"> </text><text xml:space="preserve" font-family="GillSans,Gill Sans" font-size="24.0" fill="#000000" transform="matrix(1.00, 0.00, -0.00, -1.00, 278.6, 15.5)">l</text><text xml:space="preserve" font-family="GillSans,Gill Sans" font-size="24.0" fill="#000000" transform="matrix(1.00, 0.00, -0.00, -1.00, 283.9, 15.5)">o</text><text xml:space="preserve" font-family="GillSans,Gill Sans" font-size="24.0" fill="#000000" transform="matrix(1.00, 0.00, -0.00, -1.00, 297.1, 15.5)">c</text><text xml:space="preserve" font-family="GillSans,Gill Sans" font-size="24.0" fill="#000000" transform="matrix(1.00, 0.00, -0.00, -1.00, 307.6, 15.5)">a</text><text xml:space="preserve" font-family="GillSans,Gill Sans" font-size="24.0" fill="#000000" transform="matrix(1.00, 0.00, -0.00, -1.00, 317.9, 15.5)">t</text><text xml:space="preserve" font-family="GillSans,Gill Sans" font-size="24.0" fill="#000000" transform="matrix(1.00, 0.00, -0.00, -1.00, 325.8, 15.5)">i</text><text xml:space="preserve" font-family="GillSans,Gill Sans" font-size="24.0" fill="#000000" transform="matrix(1.00, 0.00, -0.00, -1.00, 331.1, 15.5)">o</text><text xml:space="preserve" font-family="GillSans,Gill Sans" font-size="24.0" fill="#000000" transform="matrix(1.00, 0.00, -0.00, -1.00, 344.4, 15.5)">n</text><text xml:space="preserve" font-family="GillSans,Gill Sans" font-size="24.0" fill="#000000" transform="matrix(1.00, 0.00, -0.00, -1.00, 356.4, 15.5)">s</text><text xml:space="preserve" font-family="GillSans,Gill Sans" font-size="24.0" fill="#000000" transform="matrix(1.00, 0.00, -0.00, -1.00, 365.6, 15.5)"> </text><text xml:space="preserve" font-family="GillSans,Gill Sans" font-size="24.0" fill="#000000" transform="matrix(1.00, 0.00, -0.00, -1.00, 372.2, 15.5)">o</text><text xml:space="preserve" font-family="GillSans,Gill Sans" font-size="24.0" fill="#000000" transform="matrix(1.00, 0.00, -0.00, -1.00, 385.5, 15.5)">f</text><text xml:space="preserve" font-family="GillSans,Gill Sans" font-size="24.0" fill="#000000" transform="matrix(1.00, 0.00, -0.00, -1.00, 391.5, 15.5)"> </text><text xml:space="preserve" font-family="GillSans,Gill Sans" font-size="24.0" fill="#000000" transform="matrix(1.00, 0.00, -0.00, -1.00, 398.1, 15.5)">v</text><text xml:space="preserve" font-family="GillSans,Gill Sans" font-size="24.0" fill="#000000" transform="matrix(1.00, 0.00, -0.00, -1.00, 408.7, 15.5)">a</text><text xml:space="preserve" font-family="GillSans,Gill Sans" font-size="24.0" fill="#000000" transform="matrix(1.00, 0.00, -0.00, -1.00, 418.9, 15.5)">r</text><text xml:space="preserve" font-family="GillSans,Gill Sans" font-size="24.0" fill="#000000" transform="matrix(1.00, 0.00, -0.00, -1.00, 428.4, 15.5)">i</text><text xml:space="preserve" font-family="GillSans,Gill Sans" font-size="24.0" fill="#000000" transform="matrix(1.00, 0.00, -0.00, -1.00, 433.7, 15.5)">a</text><text xml:space="preserve" font-family="GillSans,Gill Sans" font-size="24.0" fill="#000000" transform="matrix(1.00, 0.00, -0.00, -1.00, 443.9, 15.5)">n</text><text xml:space="preserve" font-family="GillSans,Gill Sans" font-size="24.0" fill="#000000" transform="matrix(1.00, 0.00, -0.00, -1.00, 455.9, 15.5)">t</text><text xml:space="preserve" font-family="GillSans,Gill Sans" font-size="24.0" fill="#000000" transform="matrix(1.00, 0.00, -0.00, -1.00, 463.9, 15.5)">s</text></g></svg>